<?xml version="1.0" encoding="UTF-8"?>
<svg id="_Ñëîé_1" data-name=" Ñëîé 1" xmlns="http://www.w3.org/2000/svg" viewBox="0 0 2058.98 1496.17">
  <defs>
    <style>
      .cls-1 {
        stroke-width: 5.5px;
      }

      .cls-1, .cls-2, .cls-3, .cls-4, .cls-5, .cls-6, .cls-7, .cls-8, .cls-9, .cls-10, .cls-11, .cls-12, .cls-13, .cls-14, .cls-15, .cls-16, .cls-17, .cls-18 {
        fill: none;
      }

      .cls-1, .cls-3, .cls-5, .cls-6, .cls-10, .cls-12, .cls-18 {
        stroke: #fff;
      }

      .cls-1, .cls-3, .cls-12, .cls-14, .cls-16 {
        stroke-linecap: round;
        stroke-linejoin: round;
      }

      .cls-2 {
        stroke-width: .87px;
      }

      .cls-2, .cls-4, .cls-5, .cls-6, .cls-7, .cls-8, .cls-9, .cls-10, .cls-11, .cls-13, .cls-15, .cls-17, .cls-18 {
        stroke-miterlimit: 10;
      }

      .cls-2, .cls-11 {
        stroke: #2c3447;
      }

      .cls-3 {
        stroke-width: .69px;
      }

      .cls-4, .cls-9 {
        stroke: #6adb6a;
      }

      .cls-4, .cls-13 {
        stroke-width: 3.48px;
      }

      .cls-19 {
        fill: #fff;
      }

      .cls-20 {
        fill: #fff1f0;
      }

      .cls-21 {
        fill: #0775ef;
      }

      .cls-5 {
        stroke-width: 1.18px;
      }

      .cls-6, .cls-17 {
        stroke-width: 3.08px;
      }

      .cls-7, .cls-9 {
        stroke-width: 3.33px;
      }

      .cls-7, .cls-13 {
        stroke: #40a87b;
      }

      .cls-22 {
        fill: #332b27;
      }

      .cls-8 {
        stroke: #e5f0f8;
        stroke-width: 3.77px;
      }

      .cls-23 {
        fill: #e62c2c;
      }

      .cls-24 {
        fill: #2ec6fc;
      }

      .cls-25 {
        fill: #f9e181;
      }

      .cls-26 {
        fill: #2c3447;
      }

      .cls-27 {
        fill: #f74242;
      }

      .cls-10 {
        stroke-width: 2.65px;
      }

      .cls-11 {
        stroke-width: .91px;
      }

      .cls-12 {
        stroke-width: 5.19px;
      }

      .cls-28 {
        fill: #e5f0f8;
      }

      .cls-29 {
        fill: #40a87b;
      }

      .cls-30 {
        fill: #93acbf;
      }

      .cls-31 {
        fill: #6adb6a;
      }

      .cls-32 {
        fill: #088cff;
      }

      .cls-33 {
        fill: #f2bb16;
      }

      .cls-34 {
        fill: #e89780;
      }

      .cls-35 {
        fill: #bbdbf3;
      }

      .cls-14 {
        stroke: #e89780;
        stroke-width: .61px;
      }

      .cls-36 {
        fill: #586773;
      }

      .cls-15 {
        stroke: #724638;
        stroke-width: .7px;
      }

      .cls-16 {
        stroke: #fff1f0;
        stroke-width: 1.05px;
      }

      .cls-37 {
        fill: #088cfc;
      }

      .cls-38 {
        fill: #de2828;
      }

      .cls-39 {
        fill: #ea9d85;
      }

      .cls-17 {
        stroke: #bbdaf2;
      }

      .cls-40 {
        fill: #fdae97;
      }

      .cls-41 {
        fill: #f9ecb8;
      }

      .cls-42 {
        fill: #322a28;
      }

      .cls-18 {
        stroke-width: .8px;
      }
    </style>
  </defs>
  <path class="cls-28" d="M275.79,1464.5S-328.26-100.81,780.23,5.15c474.78,45.38,386.15,320.7,595.83,578.3,135.92,166.97,397.33,30.38,495.29,176.29,97.96,145.91-17.16,561.94-57.54,704.77H275.79Z"/>
  <g>
    <path class="cls-35" d="M1706.15,30.41H1004.72c-8.3,0-15.04,11.02-15.04,24.62V619.14h731.5V55.03c0-13.6-6.73-24.62-15.04-24.62h.01Z"/>
    <rect class="cls-28" x="999.46" y="85.74" width="711.94" height="524.33"/>
    <path class="cls-19" d="M1030.1,139.38v-5.51l31.79-17.21v8.41l-21.24,11.55,21.24,11.55v8.41l-31.79-17.21h0Z"/>
    <path class="cls-19" d="M1649.58,596.48v-8.41l21.24-11.55-21.24-11.55v-8.41l31.79,17.21v5.51l-31.79,17.21h0Z"/>
    <rect class="cls-19" x="1073.69" y="130.13" width="126.44" height="12.99"/>
    <rect class="cls-19" x="1030.1" y="180.33" width="126.44" height="12.99"/>
    <rect class="cls-19" x="1057.03" y="215.3" width="126.44" height="12.99"/>
    <rect class="cls-19" x="1057.03" y="311.54" width="126.44" height="12.99"/>
    <rect class="cls-19" x="1057.03" y="341.31" width="126.44" height="12.99"/>
    <rect class="cls-19" x="1100.48" y="248.6" width="381.31" height="12.99"/>
    <rect class="cls-19" x="1100.48" y="372.94" width="509.39" height="12.99"/>
    <rect class="cls-19" x="1100.48" y="472.53" width="509.39" height="12.99"/>
    <rect class="cls-19" x="1148.39" y="570.02" width="488.02" height="12.99"/>
    <rect class="cls-19" x="1100.48" y="506.37" width="109.1" height="12.99"/>
    <rect class="cls-19" x="1100.48" y="538.56" width="109.1" height="12.99"/>
    <rect class="cls-19" x="1100.48" y="404.73" width="509.39" height="12.99"/>
    <rect class="cls-19" x="1100.48" y="436.52" width="275.6" height="12.99"/>
    <rect class="cls-19" x="1100.48" y="278.54" width="116.92" height="12.99"/>
    <g>
      <line class="cls-12" x1="1660.7" y1="74.97" x2="1693.07" y2="42.6"/>
      <line class="cls-12" x1="1693.07" y1="74.97" x2="1660.7" y2="42.6"/>
    </g>
  </g>
  <g>
    <path class="cls-29" d="M239.46,1469.75s-29.65-118.26-103.55-154.76c-73.9-36.5-152.78,13.47-132.75,66.01,17.27,45.31,88.29-10.4,143.54,11.51,55.25,21.91,63.96,77.24,63.96,77.24h28.8Z"/>
    <path class="cls-9" d="M17.44,1349.49s79.32-45.2,138.16-3.41c58.85,41.79,77.47,123.67,77.47,123.67"/>
    <line class="cls-9" x1="30.24" y1="1328.35" x2="48.69" y2="1336.4"/>
    <line class="cls-9" x1="56.89" y1="1311.12" x2="93.65" y2="1328.35"/>
    <line class="cls-9" x1="112.11" y1="1311.12" x2="131.24" y2="1333.7"/>
    <line class="cls-9" x1="148.36" y1="1326.25" x2="156.96" y2="1347.06"/>
    <line class="cls-9" x1="39.46" y1="1378.28" x2="67.79" y2="1331.41"/>
    <line class="cls-9" x1="89.51" y1="1371.56" x2="115.49" y2="1329.83"/>
    <line class="cls-9" x1="133.65" y1="1365.17" x2="172.71" y2="1360.31"/>
    <line class="cls-9" x1="179.12" y1="1388.83" x2="201.51" y2="1396.18"/>
  </g>
  <g>
    <path class="cls-31" d="M272.61,1466.03s20.92-396.4-168.42-345.32c-189.34,51.08,147.69,264.73,147.41,345.32h21.01Z"/>
    <path class="cls-7" d="M264.96,1466.03s-6.61-207.11-141.58-309.52"/>
    <line class="cls-7" x1="182.58" y1="1216.56" x2="179.21" y2="1145.14"/>
    <line class="cls-7" x1="76.69" y1="1186.97" x2="167.91" y2="1198.86"/>
    <line class="cls-7" x1="112.17" y1="1247.92" x2="208.62" y2="1259.16"/>
    <line class="cls-7" x1="160.39" y1="1308.33" x2="234.89" y2="1318.85"/>
    <line class="cls-7" x1="242.04" y1="1251.89" x2="224.96" y2="1293.37"/>
    <line class="cls-7" x1="213.98" y1="1184.56" x2="199.42" y2="1242.96"/>
    <line class="cls-7" x1="257.98" y1="1321.14" x2="244.38" y2="1348.26"/>
    <line class="cls-7" x1="199.42" y1="1364.32" x2="252.81" y2="1381.15"/>
  </g>
  <g>
    <path class="cls-29" d="M1808.59,1467.87s31-123.66,108.28-161.82c77.28-38.16,159.75,14.08,138.81,69.03-18.06,47.37-92.32-10.88-150.09,12.03s-66.88,80.77-66.88,80.77h-30.12Z"/>
    <path class="cls-4" d="M2040.74,1342.13s-82.94-47.27-144.47-3.57-81.01,129.31-81.01,129.31"/>
    <line class="cls-4" x1="2027.36" y1="1320.02" x2="2008.07" y2="1328.43"/>
    <line class="cls-4" x1="1999.49" y1="1302" x2="1961.06" y2="1320.02"/>
    <line class="cls-4" x1="1941.75" y1="1302" x2="1921.76" y2="1325.62"/>
    <line class="cls-4" x1="1903.85" y1="1317.82" x2="1894.86" y2="1339.58"/>
    <line class="cls-4" x1="2017.71" y1="1372.22" x2="1988.09" y2="1323.22"/>
    <line class="cls-4" x1="1965.38" y1="1365.2" x2="1938.21" y2="1321.57"/>
    <line class="cls-4" x1="1919.23" y1="1358.51" x2="1878.39" y2="1353.44"/>
    <line class="cls-4" x1="1871.68" y1="1383.26" x2="1848.27" y2="1390.95"/>
  </g>
  <g>
    <path class="cls-31" d="M1773.93,1463.98s-21.87-414.5,176.1-361.08c197.98,53.41-154.43,276.81-154.14,361.08h-21.96Z"/>
    <path class="cls-13" d="M1781.93,1463.98s6.91-216.56,148.04-323.64"/>
    <line class="cls-13" x1="1868.07" y1="1203.13" x2="1871.59" y2="1128.45"/>
    <line class="cls-13" x1="1978.79" y1="1172.18" x2="1883.4" y2="1184.62"/>
    <line class="cls-13" x1="1941.69" y1="1235.92" x2="1840.84" y2="1247.67"/>
    <line class="cls-13" x1="1891.27" y1="1299.08" x2="1813.37" y2="1310.09"/>
    <line class="cls-13" x1="1805.89" y1="1240.06" x2="1823.75" y2="1283.44"/>
    <line class="cls-13" x1="1835.23" y1="1169.66" x2="1850.46" y2="1230.73"/>
    <line class="cls-13" x1="1789.23" y1="1312.48" x2="1803.45" y2="1340.84"/>
    <line class="cls-13" x1="1850.46" y1="1357.63" x2="1794.63" y2="1375.23"/>
  </g>
  <g>
    <path class="cls-30" d="M178.34,562.85l-37.13,29.92c-3.86,3.11-5.77,8.37-4.91,13.54l142.13,852.02h51.26L178.34,562.85Z"/>
    <path class="cls-35" d="M329.68,1458.33h968.63l-158.24-884.98c-1.55-8.67-8.48-14.92-16.55-14.92H189.26c-10.61,0-18.59,10.61-16.55,22.02l156.97,877.88h0Z"/>
    <polygon class="cls-30" points="224.38 602.34 227.14 617.84 359.43 1357.67 1233.55 1357.44 1246.32 1357.44 1111.3 602.34 224.38 602.34"/>
    <polygon class="cls-19" points="227.14 617.84 359.43 1357.67 1233.55 1357.44 1098.5 617.84 227.14 617.84"/>
    <rect class="cls-35" x="682.7" y="1390.78" width="963.03" height="67.55"/>
    <path class="cls-30" d="M750.1,1458.33H280.37v-67.55h458.47c6.22,0,11.26,5.05,11.26,11.26v56.29h0Z"/>
    <path class="cls-36" d="M671.72,583.03c.56,6.46,4.05,11.38,7.78,10.99,3.74-.39,6.31-5.94,5.74-12.41-.56-6.46-4.05-11.38-7.78-10.99-3.74,.39-6.31,5.94-5.74,12.41Z"/>
    <g>
      <polygon class="cls-28" points="1098.86 621.78 1233.53 1357.59 359.16 1357.59 227.85 621.78 1098.86 621.78"/>
      <polygon class="cls-35" points="1098.14 617.84 1109.74 681.21 238.45 681.21 227.14 617.84 1098.14 617.84"/>
      <g>
        <line class="cls-1" x1="1052.36" y1="668.58" x2="1080.42" y2="634.4"/>
        <line class="cls-1" x1="1086.67" y1="668.58" x2="1046.11" y2="634.4"/>
      </g>
    </g>
    <g>
      <path class="cls-19" d="M962.38,470.87c0-110.04-25.85-203.01-57.51-275.63h-115.4v473.84h161.47c7.73-58.39,11.44-124.5,11.44-198.21h0Z"/>
      <path class="cls-35" d="M675.97,195.24c-31.65,72.61-57.5,165.59-57.5,275.63,0,73.71,3.72,139.82,11.44,198.21h159.55V195.24h-113.49Z"/>
      <path class="cls-27" d="M789.46,423.5c-35.13,0-63.7-28.58-63.7-63.71s28.58-63.71,63.7-63.71,63.71,28.58,63.71,63.71-28.58,63.71-63.71,63.71Z"/>
      <path class="cls-35" d="M789.46,404.76c-24.79,0-44.96-20.17-44.96-44.96s20.17-44.96,44.96-44.96,44.96,20.17,44.96,44.96-20.17,44.96-44.96,44.96Z"/>
      <circle class="cls-19" cx="789.46" cy="359.8" r="35.58"/>
      <path class="cls-27" d="M789.46,604.7c-35.13,0-63.7-28.58-63.7-63.71s28.58-63.71,63.7-63.71,63.71,28.58,63.71,63.71-28.58,63.71-63.71,63.71Z"/>
      <path class="cls-35" d="M789.46,585.95c-24.79,0-44.96-20.17-44.96-44.96s20.17-44.96,44.96-44.96,44.96,20.17,44.96,44.96-20.17,44.96-44.96,44.96Z"/>
      <circle class="cls-19" cx="789.46" cy="540.99" r="35.58"/>
      <path class="cls-35" d="M995.06,959.69h-39.68c-26.64,0-48.24-21.6-48.24-48.24v-134.6h52.74c19.43,0,35.18,15.75,35.18,35.18v147.66h0Z"/>
      <path class="cls-30" d="M671.8,776.85v134.6c0,26.64-21.61,48.23-48.25,48.23h-39.67v-147.66c0-19.42,15.75-35.17,35.17-35.17h52.75Z"/>
      <path class="cls-35" d="M648.98,776.85v134.6c0,26.64-21.59,48.23-48.25,48.23h-16.85v-147.66c0-19.42,15.75-35.17,35.17-35.17h29.93Z"/>
      <path class="cls-6" d="M957.32,561.71h-8.56c-7.41,0-13.42-6.01-13.42-13.42v-89.87c0-7.41,6.01-13.42,13.42-13.42h9.34"/>
      <path class="cls-27" d="M790.43,16.67s-.34,.34-.96,.98V195.24h115.4c-49.99-114.67-114.44-178.57-114.44-178.57Z"/>
      <path class="cls-23" d="M789.46,17.65c-8.11,8.34-67.05,71.03-113.49,177.59h113.49s0-177.59,0-177.59Z"/>
      <path class="cls-19" d="M789.46,937.88c.32,0,.65,.02,.96,.02,19.21,0,66.1-14.43,80.92-34.23,29.92-39.98,51.93-93.84,66.82-161.06h-148.7v195.27h0Z"/>
      <path class="cls-35" d="M709.51,903.67c14.58,19.49,60.2,33.76,79.96,34.21v-195.27h-146.78c14.89,67.22,36.9,121.07,66.82,161.06h0Z"/>
      <path class="cls-23" d="M642.69,742.61h146.78v-73.53h-159.55c3.45,26.05,7.69,50.58,12.77,73.53Z"/>
      <path class="cls-27" d="M789.46,669.08v73.53h148.7c5.08-22.95,9.32-47.47,12.77-73.53h-161.47Z"/>
      <path class="cls-6" d="M743.21,222.67c0,3.46-2.81,6.27-6.27,6.27s-6.27-2.81-6.27-6.27,2.81-6.27,6.27-6.27,6.27,2.81,6.27,6.27Z"/>
      <path class="cls-6" d="M795.74,222.67c0,3.46-2.81,6.27-6.27,6.27s-6.27-2.81-6.27-6.27,2.81-6.27,6.27-6.27,6.27,2.81,6.27,6.27Z"/>
      <path class="cls-19" d="M1163.21,1221.17c-64.67-53.78-148.48,6.11-148.48,6.11,0,0-36.76-132.78-124.5-91.26-69.79,32.97-63.83-111.75-58.51-172.42v-.03c1.38-15.64,2.71-25.66,2.71-25.66l-98.3,9.6s1.2,5.96,2.77,16.06v.03c8.24,53.15,23.01,258.39-61.63,263.36-100.77,5.93-70.6-88.14-145.44-88.8-51.35-.45-88.44,42.59-117.25,88.8-24.37,39.07-55.14,130.73-55.14,130.73h874.14s-35.68-107.66-70.36-136.51h-.01Zm-668.42-36.08c-44.04,33.36-95.11,123.66-96.71,126.49,1.11-3.13,37.03-102.66,86.09-135.6,49.84-33.48,84.23-8.21,93.67,9.11,0,0-35.62-35.98-83.05,0Zm325.5-89.28c-2.71-12.24-4.57-24.7-5.81-37.21-1.2-12.51-1.47-25.12-.87-37.69,.63-12.57,2.53-25.09,5.75-37.18-.75,12.51-1.29,24.88-1.05,37.27,0,3.1,.24,6.2,.3,9.26,.09,3.1,.18,6.2,.45,9.29l.57,9.23,.84,9.26c2.29,24.67,6.08,49.15,10.44,73.82-4.57-11.7-7.91-23.82-10.62-36.07v.02Z"/>
      <path class="cls-17" d="M848.27,222.67c0,3.46-2.81,6.27-6.27,6.27s-6.27-2.81-6.27-6.27,2.81-6.27,6.27-6.27,6.27,2.81,6.27,6.27Z"/>
      <path class="cls-35" d="M849.17,963.58h-117.49c-15.68,0-28.4-12.71-28.4-28.4v-37.51h174.29v37.51c0,15.68-12.71,28.4-28.4,28.4h0Z"/>
      <circle class="cls-19" cx="654.33" cy="1178.94" r="8.82" transform="translate(-614.38 1635.48) rotate(-80.76)"/>
      <path class="cls-19" d="M688.4,1188.53c0,1.89-1.53,3.42-3.42,3.42s-3.42-1.53-3.42-3.42,1.53-3.42,3.42-3.42,3.42,1.53,3.42,3.42Z"/>
      <path class="cls-19" d="M695.45,1154.73c0,3.84-3.11,6.95-6.95,6.95s-6.95-3.11-6.95-6.95,3.11-6.95,6.95-6.95,6.95,3.11,6.95,6.95Z"/>
      <path class="cls-19" d="M711.82,1187.77c0,2.31-1.87,4.18-4.18,4.18s-4.18-1.87-4.18-4.18,1.87-4.18,4.18-4.18,4.18,1.87,4.18,4.18Z"/>
      <circle class="cls-19" cx="665.58" cy="1219.94" r="7.15"/>
      <circle class="cls-19" cx="651.07" cy="1206.95" r="3.28"/>
      <path class="cls-19" d="M621.63,1190.43c0,2.94-2.38,5.32-5.32,5.32s-5.32-2.38-5.32-5.32,2.38-5.32,5.32-5.32,5.32,2.38,5.32,5.32Z"/>
      <path class="cls-19" d="M640.18,1206.25c0,2.6-2.11,4.71-4.71,4.71s-4.71-2.11-4.71-4.71,2.11-4.71,4.71-4.71,4.71,2.11,4.71,4.71Z"/>
      <path class="cls-19" d="M635.57,1161.71c0,3.85-3.12,6.97-6.97,6.97s-6.97-3.12-6.97-6.97,3.12-6.97,6.97-6.97,6.97,3.12,6.97,6.97Z"/>
      <circle class="cls-19" cx="593.47" cy="1159.43" r="4.69"/>
      <path class="cls-19" d="M600.62,1180.25c0,.68-.55,1.23-1.23,1.23s-1.23-.55-1.23-1.23,.55-1.23,1.23-1.23,1.23,.55,1.23,1.23Z"/>
      <circle class="cls-19" cx="660.87" cy="1146.78" r="4.26"/>
      <path class="cls-19" d="M717.9,1167.16c0,1.68-1.36,3.04-3.04,3.04s-3.04-1.36-3.04-3.04,1.36-3.04,3.04-3.04,3.04,1.36,3.04,3.04Z"/>
      <circle class="cls-19" cx="717.56" cy="1143.4" r="5.74"/>
      <circle class="cls-19" cx="603.21" cy="1111.96" r="2.59"/>
      <path class="cls-19" d="M579.35,1131.87c0,1.85-1.5,3.35-3.35,3.35s-3.35-1.5-3.35-3.35,1.5-3.35,3.35-3.35,3.35,1.5,3.35,3.35Z"/>
      <path class="cls-19" d="M869.03,1112.96c0,1.99-1.61,3.6-3.6,3.6s-3.6-1.61-3.6-3.6,1.61-3.6,3.6-3.6,3.6,1.61,3.6,3.6Z"/>
      <path class="cls-19" d="M876.53,1131.42c0,1.6-1.29,2.89-2.89,2.89s-2.89-1.29-2.89-2.89,1.29-2.89,2.89-2.89,2.89,1.29,2.89,2.89Z"/>
      <path class="cls-19" d="M904.42,1111.29c0,4.26-3.45,7.71-7.71,7.71s-7.71-3.45-7.71-7.71,3.45-7.71,7.71-7.71,7.71,3.45,7.71,7.71Z"/>
      <circle class="cls-19" cx="890.45" cy="1128.96" r="2.46"/>
      <path class="cls-19" d="M860.92,1085.18c0,.81-.66,1.47-1.47,1.47s-1.47-.66-1.47-1.47,.66-1.47,1.47-1.47,1.47,.66,1.47,1.47Z"/>
      <path class="cls-19" d="M852.1,1101.66c0,1.29-1.04,2.33-2.33,2.33s-2.33-1.04-2.33-2.33,1.04-2.33,2.33-2.33,2.33,1.04,2.33,2.33Z"/>
      <path class="cls-19" d="M855.34,1121.79c0,1.54-1.25,2.79-2.79,2.79s-2.79-1.25-2.79-2.79,1.25-2.79,2.79-2.79,2.79,1.25,2.79,2.79Z"/>
      <path class="cls-19" d="M889.87,1088.91c0,1.25-1.01,2.26-2.26,2.26s-2.26-1.01-2.26-2.26,1.01-2.26,2.26-2.26,2.26,1.01,2.26,2.26Z"/>
      <path class="cls-19" d="M881.05,1100.37c0,1.25-1.01,2.26-2.26,2.26s-2.26-1.01-2.26-2.26,1.01-2.26,2.26-2.26,2.26,1.01,2.26,2.26Z"/>
      <path class="cls-19" d="M849.77,1078.39c0,1.76-1.43,3.19-3.19,3.19s-3.19-1.43-3.19-3.19,1.43-3.19,3.19-3.19,3.19,1.43,3.19,3.19Z"/>
      <path class="cls-19" d="M720.11,1028.24c0,2.29-1.86,4.14-4.14,4.14s-4.14-1.86-4.14-4.14,1.86-4.14,4.14-4.14,4.14,1.86,4.14,4.14Z"/>
      <path class="cls-19" d="M738.54,1069.31c0,3.25-2.63,5.88-5.88,5.88s-5.88-2.63-5.88-5.88,2.63-5.88,5.88-5.88,5.88,2.63,5.88,5.88Z"/>
      <path class="cls-19" d="M717.9,1105.66c0,1.68-1.36,3.04-3.04,3.04s-3.04-1.36-3.04-3.04,1.36-3.04,3.04-3.04,3.04,1.36,3.04,3.04Z"/>
      <path class="cls-19" d="M963.52,1115.57c0,3.43-2.78,6.21-6.21,6.21s-6.21-2.78-6.21-6.21,2.78-6.21,6.21-6.21,6.21,2.78,6.21,6.21Z"/>
      <path class="cls-19" d="M988.34,1147.58c0,2.79-2.26,5.06-5.05,5.06s-5.05-2.26-5.05-5.06,2.26-5.05,5.05-5.05,5.05,2.26,5.05,5.05Z"/>
      <path class="cls-19" d="M939.81,1094.64c0,3.17-2.57,5.73-5.73,5.73s-5.73-2.57-5.73-5.73,2.57-5.73,5.73-5.73,5.73,2.57,5.73,5.73Z"/>
      <circle class="cls-19" cx="681.3" cy="1077.17" r="4.41"/>
      <path class="cls-19" d="M682.36,1112.25c0,1.96-1.59,3.55-3.55,3.55s-3.55-1.59-3.55-3.55,1.59-3.55,3.55-3.55,3.55,1.59,3.55,3.55Z"/>
      <circle class="cls-19" cx="678.79" cy="1025.4" r="6.98"/>
    </g>
  </g>
  <g>
    <path class="cls-35" d="M1438.09,670.7v-4.5l25.95-14.05v6.87l-17.34,9.43,17.34,9.43v6.87l-25.95-14.05Z"/>
    <path class="cls-35" d="M1943.81,1043.85v-6.87l17.34-9.43-17.34-9.43v-6.87l25.95,14.05v4.5l-25.95,14.05Z"/>
    <rect class="cls-35" x="1473.67" y="663.15" width="103.22" height="10.6"/>
    <rect class="cls-35" x="1438.09" y="704.13" width="103.22" height="10.6"/>
    <rect class="cls-35" x="1460.08" y="732.67" width="103.22" height="10.6"/>
    <rect class="cls-35" x="1460.08" y="811.24" width="103.22" height="10.6"/>
    <rect class="cls-35" x="1460.08" y="835.55" width="103.22" height="10.6"/>
    <rect class="cls-35" x="1495.55" y="759.86" width="311.28" height="10.6"/>
    <rect class="cls-35" x="1495.55" y="861.37" width="415.85" height="10.6"/>
    <rect class="cls-35" x="1495.55" y="942.67" width="415.85" height="10.6"/>
    <rect class="cls-35" x="1534.66" y="1022.26" width="398.4" height="10.6"/>
    <rect class="cls-35" x="1495.55" y="970.29" width="89.07" height="10.6"/>
    <rect class="cls-35" x="1495.55" y="996.57" width="89.07" height="10.6"/>
    <rect class="cls-35" x="1495.55" y="887.32" width="415.85" height="10.6"/>
    <rect class="cls-35" x="1495.55" y="913.28" width="224.99" height="10.6"/>
    <rect class="cls-35" x="1495.55" y="784.3" width="95.45" height="10.6"/>
  </g>
  <g>
    <path class="cls-27" d="M1385.86,1458.32h-426.94c-9.77,0-17.72-7.92-17.72-17.69v-152.43c0-9.77,7.96-17.69,17.72-17.69h426.94c-9.77,0-17.69,7.92-17.69,17.69v152.43c0,9.77,7.92,17.69,17.69,17.69h0Z"/>
    <path class="cls-38" d="M1389.55,1291.9v145.04h424.19v21.38h-427.89c-9.77,0-17.69-7.92-17.69-17.69v-152.43c0-9.77,7.92-17.69,17.69-17.69h427.89v21.38h-424.19Z"/>
    <rect class="cls-28" x="1389.55" y="1291.9" width="15.09" height="145.04"/>
    <path class="cls-19" d="M1804.43,1436.94h-399.79v-145.04h399.79s-14.9,55.78,0,145.04Z"/>
    <rect class="cls-41" x="1012.13" y="1270.51" width="32.03" height="187.8"/>
    <rect class="cls-41" x="1238.66" y="1270.51" width="32.03" height="187.8"/>
    <line class="cls-8" x1="1452.99" y1="1323.35" x2="1739.78" y2="1323.35"/>
    <line class="cls-8" x1="1487.31" y1="1417.17" x2="1774.1" y2="1417.17"/>
    <line class="cls-8" x1="1433.92" y1="1379.03" x2="1690.2" y2="1379.03"/>
    <line class="cls-8" x1="1462.82" y1="1356.15" x2="1719.09" y2="1356.15"/>
  </g>
  <g>
    <path class="cls-24" d="M1376.56,1270.5h-426.94c-9.77,0-17.72-7.92-17.72-17.69v-152.43c0-9.77,7.96-17.69,17.72-17.69h426.94c-9.77,0-17.69,7.92-17.69,17.69v152.43c0,9.77,7.92,17.69,17.69,17.69Z"/>
    <path class="cls-37" d="M1380.26,1104.07v145.04h424.19v21.38h-427.89c-9.77,0-17.69-7.92-17.69-17.69v-152.43c0-9.77,7.92-17.69,17.69-17.69h427.89v21.38h-424.19Z"/>
    <rect class="cls-28" x="1380.26" y="1104.07" width="15.08" height="145.04"/>
    <path class="cls-19" d="M1795.13,1249.11h-399.79v-145.04h399.79s-14.9,55.78,0,145.04Z"/>
    <polygon class="cls-10" points="1154.23 1227.78 1243.21 1176.59 1154.23 1125.4 1065.24 1176.59 1154.23 1227.78"/>
    <polygon class="cls-19" points="1154.23 1215.31 1221.54 1176.59 1154.23 1137.87 1086.91 1176.59 1154.23 1215.31"/>
    <polygon class="cls-19" points="1048.19 1198.86 1086.91 1176.59 1048.19 1154.32 1009.48 1176.59 1048.19 1198.86"/>
    <polygon class="cls-19" points="1260.26 1198.86 1221.54 1176.59 1260.26 1154.32 1298.98 1176.59 1260.26 1198.86"/>
    <line class="cls-8" x1="1763.74" y1="1130.69" x2="1447.97" y2="1130.69"/>
    <line class="cls-8" x1="1711.11" y1="1230.3" x2="1395.34" y2="1230.3"/>
    <line class="cls-8" x1="1744.82" y1="1157.59" x2="1429.05" y2="1157.59"/>
    <line class="cls-8" x1="1767.19" y1="1196.74" x2="1451.43" y2="1196.74"/>
  </g>
  <g>
    <rect class="cls-36" x="298.45" y="941.4" width="252.16" height="13.37"/>
    <rect class="cls-36" x="273.18" y="1116.81" width="252.16" height="13.37"/>
    <rect class="cls-36" x="253.74" y="1292.22" width="244.45" height="13.37"/>
    <polygon class="cls-36" points="471.81 1464.5 486.06 1464.5 569.37 818.46 555.11 818.46 471.81 1464.5"/>
    <polygon class="cls-36" points="228.35 1464.5 242.61 1464.5 325.92 818.46 311.66 818.46 228.35 1464.5"/>
    <polygon class="cls-36" points="409.3 1464.5 395.04 1464.5 311.73 818.46 325.99 818.46 409.3 1464.5"/>
    <polygon class="cls-36" points="652.75 1464.5 638.49 1464.5 555.19 818.46 569.44 818.46 652.75 1464.5"/>
    <rect class="cls-36" x="313.96" y="818.46" width="252.16" height="13.37"/>
  </g>
  <rect class="cls-21" x="143.75" y="1458.4" width="1766.1" height="37.77" rx="17.38" ry="17.38"/>
  <g>
    <path class="cls-37" d="M335.28,707.45l-21.45,177.56c-.67,4.49-.65,9.15,.26,13.86,4.31,22.17,25.78,36.65,47.95,32.34s30.65-21.43,34.64-46.88c7.64-48.87,34.34-195.49,34.34-195.49l-95.74,18.61Z"/>
    <polygon class="cls-37" points="474.36 698.51 395.57 703.8 395.96 791.09 405.31 804.92 413.98 889.07 493.74 882.7 474.36 698.51"/>
    <path class="cls-37" d="M298.89,1065.23l74.11-.05,22.34-172.47c2.33-22.48-13.96-42.6-36.41-44.97-22.48-2.33-42.57,13.96-44.94,36.4-.21,1.95-.24,3.86-.17,5.79l-12.9,151.38-2.04,23.92h.01Z"/>
    <path class="cls-37" d="M413.7,885.97l19.03,179.26h72.81l-11.67-180.24c.1-1.9-.44-4.02-.6-5.98-1.99-22.51-19.88-39.32-42.4-37.36-22.48,1.99-39.13,21.81-37.17,44.33h0Z"/>
    <polygon class="cls-40" points="443.23 1093.24 441.28 1065.23 495.83 1065.23 497.96 1093.24 443.23 1093.24"/>
    <polygon class="cls-39" points="496.8 1077.92 441.28 1065.23 495.83 1065.23 496.8 1077.92"/>
    <polygon class="cls-40" points="362.26 1093.24 364.35 1065.18 308.48 1065.23 307.53 1093.24 362.26 1093.24"/>
    <polygon class="cls-39" points="363.19 1080.83 308.48 1065.23 364.35 1065.18 363.19 1080.83"/>
    <path class="cls-42" d="M524.85,1116.81h-80.55l-.14-3.28-.99-21.71h54.81c6.79,0,13.06,3.98,17.86,8.14,3.97,3.55,6.92,8.22,8.31,13.57,.32,1.06,.55,2.17,.69,3.28h.01Z"/>
    <path class="cls-20" d="M524.85,1116.81h-80.55l-.14-3.28h80c.32,1.06,.55,2.17,.69,3.28Z"/>
    <g>
      <path class="cls-16" d="M499.63,1096.28s-6.96-12.22-11.65-7.39,11.65,7.39,11.65,7.39"/>
      <path class="cls-16" d="M497.18,1098.72l2.45-2.43s6.96-12.22,11.65-7.39c4.69,4.83-11.65,7.39-11.65,7.39"/>
      <line class="cls-16" x1="501.5" y1="1098.72" x2="499.63" y2="1096.28"/>
    </g>
    <path class="cls-42" d="M281.07,1116.81h80.55l.14-3.28,.99-21.71h-54.81c-6.79,0-13.06,3.98-17.86,8.14-3.97,3.55-6.92,8.22-8.31,13.57-.32,1.06-.55,2.17-.69,3.28h-.01Z"/>
    <path class="cls-20" d="M281.07,1116.81h80.55l.14-3.28h-80c-.32,1.06-.55,2.17-.69,3.28Z"/>
    <g>
      <path class="cls-16" d="M306.28,1097.02s6.96-12.22,11.65-7.39-11.65,7.39-11.65,7.39"/>
      <path class="cls-16" d="M308.74,1099.46l-2.45-2.43s-6.96-12.22-11.65-7.39,11.65,7.39,11.65,7.39"/>
      <line class="cls-16" x1="304.41" y1="1099.46" x2="306.28" y2="1097.02"/>
    </g>
    <polyline class="cls-3" points="407.12 822.5 413.54 801.08 419.69 801.08 429.48 774.56"/>
    <line class="cls-3" x1="306.28" y1="1044.98" x2="369.36" y2="1044.98"/>
    <line class="cls-3" x1="434.89" y1="1044.98" x2="497.96" y2="1044.98"/>
    <path class="cls-40" d="M574.29,467.8h0c7.23,13.95,1.72,31.28-12.23,38.51l-92.76,48.04c-13.95,7.23-31.28,1.72-38.51-12.23h0c-7.23-13.95-1.72-31.28,12.23-38.51l92.76-48.04c13.95-7.23,31.28-1.72,38.51,12.23Z"/>
    <path class="cls-27" d="M443.02,503.61c-13.95,7.23-20.6,24.9-13.38,38.85s27.57,21.06,41.52,13.84l72.12-34.88-28.66-60.25-71.61,42.44h0Z"/>
    <polygon class="cls-27" points="461.33 486.71 475.64 553.26 479.83 709.24 328.8 709.24 332.33 541.99 353.86 486.84 400.76 485.25 435.04 488.85 461.33 486.71"/>
    <path class="cls-40" d="M435.04,461.13v27.72s-1.66,5.99-15.75,6.04c-14.06,.03-28.94-9.3-28.94-9.3l4.36-60.62,40.33,36.15h0Z"/>
    <polygon class="cls-39" points="435.05 485.05 406.26 455.16 435.05 454.78 435.05 485.05"/>
    <path class="cls-40" d="M527.75,477.11c-2.51,13.56,6.53,26.72,20.1,29.23,13.56,2.51,26.72-6.53,29.23-20.1l7.9-118.53-29.15-4.16-28.08,113.56h0Z"/>
    <path class="cls-40" d="M446.84,405.36v39.02c0,7.87-2.21,19.56-11.07,22.26-8.83,2.7-21.01-.99-29.49-10.2-8.49-9.24-27.31-50.85-1.13-66.22,26.21-15.37,41.09,11.07,41.7,15.14h-.01Z"/>
    <path class="cls-42" d="M407.86,388.78s31.68-14.61,38.99-5.02c7.31,9.6-4.87,12.95-4.87,12.95,0,0,15.11-1.78,14.52,8.4-.59,10.19-38.4-3.72-38.4-3.72,0,0,12.54,5.68,5.29,10.19s-15.54-1.37-15.54-1.37c0,0-7.19,4.11-6.01,22.99s-10.09,23.05-10.09,23.05c0,0,1.35-28.6-4.17-36.24-5.52-7.64,2.58-36,20.28-31.22h0Z"/>
    <g>
      <path class="cls-40" d="M403.62,437.58c3.07,4.81,3.9,8.2,.12,10.62s-10.07,1.65-13.14-3.16-2.5-10.67,1.28-13.09,8.67,.82,11.75,5.63h0Z"/>
      <path class="cls-15" d="M393.75,437.21s3.88-.58,6.54,4.4c0,0-2.45-.56-5.44,0"/>
    </g>
    <polygon class="cls-39" points="517.82 464.87 551.49 511.78 541.22 517.1 516.67 465.46 517.82 464.87"/>
    <path class="cls-26" d="M423.3,427.48c0,1.83,.96,3.31,2.14,3.31s2.14-1.48,2.14-3.31-.96-3.31-2.14-3.31-2.14,1.48-2.14,3.31Z"/>
    <path class="cls-2" d="M432.38,428.74l4.03,11.66c.41,1.18-.04,2.49-1.09,3.17l-3.29,2.14"/>
    <path class="cls-2" d="M419.93,421.99s4.51-3.15,8.8-1.15"/>
    <path class="cls-26" d="M445.39,427.48c0,1.83-.96,3.31-2.14,3.31s-2.14-1.48-2.14-3.31,.96-3.31,2.14-3.31,2.14,1.48,2.14,3.31Z"/>
    <path class="cls-2" d="M447.38,421.81s-3.12-2.97-7.42-.97"/>
    <path class="cls-39" d="M426.7,439.54c-.56,1.68-3.72,2.13-7.06,1.02-3.34-1.12-5.59-3.38-5.02-5.06,.56-1.68,3.72-2.13,7.06-1.02,3.34,1.12,5.59,3.38,5.02,5.06Z"/>
    <path class="cls-39" d="M446.84,434.42v6.48c-2.73,.32-4.97-.44-5.35-1.86-.41-1.69,1.98-3.75,5.35-4.62h0Z"/>
    <path class="cls-19" d="M424.12,450.76l9.36,2.18s-1.69,3.87-5.6,2.83c-3.9-1.04-3.76-5.02-3.76-5.02h0Z"/>
    <polygon class="cls-27" points="455.95 489.34 514.62 461.17 495.05 498.74 452.07 511.09 455.95 489.34"/>
    <path class="cls-40" d="M282.32,470.31c5.35,12.71-2.2,35.04-14.91,40.39-12.71,5.35-29.03-3.13-34.39-15.85l-31.51-111.65,27.58-10.29,53.23,97.4Z"/>
    <path class="cls-40" d="M233.07,471.15h0c5.93-14.55,22.69-21.6,37.24-15.67l96.73,39.44c14.55,5.93,21.6,22.69,15.67,37.24h0c-5.93,14.55-22.69,21.6-37.24,15.67l-96.73-39.44c-14.55-5.93-21.6-22.69-15.67-37.24h0Z"/>
    <path class="cls-27" d="M345.47,547.84c14.55,5.93,32.31-.47,38.25-15.02,5.93-14.55-1.85-34.65-16.4-40.58l-73.32-32.26-27.27,60.89,78.75,26.97h-.01Z"/>
    <polygon class="cls-39" points="267.47 516.03 281.33 459.98 292.04 464.34 268.67 516.52 267.47 516.03"/>
    <path class="cls-40" d="M229.1,372.92l2.72-14.5s-1.5-14.43-1.99-19.25c-.28-2.71-.4-9.78-1.12-10.85-.57-.85-3-1.41-3.57-.56-.75,1.1-1.41,8.35-1.73,11.18-.3,2.7-1.22,10.78-1.22,10.78,0,0-9.88-18.03-12.82-24.26-1.65-3.5-6.01-13.94-8.71-12.96-2.06,.74,1.12,11.91,2.17,15.75,.96,3.52,3.75,14.12,3.75,14.12,0,0-6.37-13.89-8.49-18.52-1.54-3.37-4.79-13.98-7.84-12.97-3.02,1.01,.99,11.23,1.91,14.79,1.31,5.02,5.24,20.1,5.24,20.1,0,0-7.02-14.38-9.35-19.17-1.29-2.65-4.04-11.05-6.83-9.92-2.84,1.15,1.11,9.25,2.04,12.1,1.6,4.88,6.4,19.51,6.4,19.51,0,0-5.37-10.26-7.17-13.68-.77-1.46-3.19-5.75-4.72-4.97-2.07,1.06,.74,7.09,1.44,9.21l5.82,17.52c.47,1.42,1.12,2.77,1.92,4.03l14.66,22.83,27.49-10.32h0Z"/>
    <path class="cls-40" d="M555.83,363.54l-5.76-13.59s-1.62-14.42-2.17-19.23c-.31-2.71-1.7-9.64-1.22-10.84,.38-.95,2.63-2.02,3.37-1.31,.96,.91,3.16,7.85,4.08,10.55,.87,2.57,3.49,10.28,3.49,10.28,0,0,5.8-19.73,7.34-26.43,.87-3.77,2.89-14.9,5.74-14.52,2.17,.29,1.45,11.88,1.24,15.85-.19,3.65-.65,14.6-.65,14.6,0,0,3.25-14.93,4.33-19.91,.79-3.62,1.69-14.68,4.89-14.34,3.17,.34,1.44,11.18,1.29,14.85-.21,5.19-.82,20.75-.82,20.75,0,0,3.78-15.55,5.04-20.73,.7-2.87,1.59-11.66,4.56-11.15,3.02,.52,.9,9.27,.59,12.25-.52,5.11-2.08,20.43-2.08,20.43,0,0,3.06-11.17,4.08-14.89,.44-1.59,1.89-6.3,3.55-5.86,2.25,.6,.79,7.08,.56,9.3l-1.94,18.36c-.16,1.49-.5,2.95-1.02,4.35l-9.44,25.44-29.06-4.21h.01Z"/>
    <g>
      <path class="cls-33" d="M558.89,335.77l-363.98,6.64c-10.31,.19-18.81-8.01-19-18.32l-3.55-194.84c-.19-10.31,8.01-18.81,18.32-19l363.98-6.64c10.31-.19,18.81,8.01,19,18.32l3.55,194.84c.19,10.31-8.01,18.81-18.32,19Z"/>
      <path class="cls-25" d="M579.65,335.4l-363.98,6.64c-10.31,.19-18.81-8.01-19-18.32l-3.55-194.84c-.19-10.31,8.01-18.81,18.32-19l363.98-6.64c10.31-.19,18.81,8.01,19,18.32l3.55,194.84c.19,10.31-8.01,18.81-18.32,19Z"/>
      <g>
        <path class="cls-19" d="M223.93,179.98l12.41-.23,.69,38.01,47.44-.86-.69-38.01,12.41-.23,1.67,91.53-12.41,.23-.76-41.89-47.44,.86,.76,41.89-12.41,.23-1.67-91.53h0Z"/>
        <path class="cls-19" d="M339.08,189.52l-29.48,.54-.21-11.64,71.36-1.3,.21,11.64-29.47,.54,1.46,79.89-12.41,.23-1.46-79.89h0Z"/>
        <path class="cls-19" d="M393.02,176.9l18.49-.34,30.35,68.76h.52l27.56-69.83,18.48-.34,1.67,91.53-12.41,.23-1.37-75.24h-.26l-29.53,75.81-8.27,.15-32.27-74.67h-.26l1.37,75.24-12.41,.23-1.67-91.53h.01Z"/>
        <path class="cls-19" d="M511.05,174.75l12.41-.23,1.46,79.89,42.01-.77,.21,11.64-54.43,.99-1.67-91.53h0Z"/>
      </g>
    </g>
    <path class="cls-40" d="M556.52,336.13s-3.18-19.93-6.68-20.08-1.33,20.08-1.33,20.08h8.01Z"/>
    <path class="cls-40" d="M222.99,342.52s.99-14.23,4.18-14.53c3.19-.3,3.18,16.28,3.18,16.28l-7.36-1.74h0Z"/>
  </g>
  <g>
    <path class="cls-40" d="M1086.44,488.79c-1.15,2.04,8.11,12.79,16.98,18.13,7.51,4.54,25.95,13.13,31.41,15.63l15.06-23.51c-2.7-2.26-5.59-4.85-7.8-7.39-5.48-6.19-22.29-21.32-24.46-18.86-2.17,2.42,7.28,15.12,5.52,15.4-1.75,.28-10.84-7.42-14.44-11.01-3.64-3.58-10.14-12.52-13.08-12.07-2.97,.45-3.41,4.82-3.41,4.82,0,0-2.1-3.71-4.17-1.97-2.07,1.73-.26,8.31-.26,8.31,0,0-.92-2.17-2.73,.29-1.81,2.51,4.25,11.35,4.25,11.35,0,0-1.75-1.22-2.86,.86v.02Z"/>
    <path class="cls-42" d="M1322.81,349.36c19.54,1.7,36.5,18.3,36.74,42.02s4.54,35.92,18.88,33.16c0,0-40.16,23.29-93.07,2.74,0,0,6.63-7.86,7.56-25.68,.93-17.81,29.89-52.24,29.89-52.24h0Z"/>
    <path class="cls-27" d="M1220.06,591.65h0c12.45,6.7,28.12,2,34.82-10.45l50.36-93.58c6.7-12.45,2-28.12-10.45-34.82h0c-12.45-6.7-28.12-2-34.82,10.45l-50.36,93.58c-6.7,12.45-2,28.12,10.45,34.82Z"/>
    <path class="cls-21" d="M1334.52,622.79c16.83,22.04,23.17,67.72,12.44,116.93-10.73,49.21-14.36,81.56-14.36,81.56-2.8,22.78-23.53,38.98-46.31,36.18s-38.98-23.53-36.18-46.31l17.11-188.36h67.3Z"/>
    <path class="cls-27" d="M1338.23,442.14l44.98,20.37s-10,115.8-11.04,128.47c-1.03,12.67,2.84,31.8,2.84,31.8h-107.8s1.29-62.04-5.95-79.37c-4.9-11.73-8.27-18.87-5.43-32.31s23.65-37.21,20.29-60.48l23.47-7.52,38.63-.97h.01Z"/>
    <path class="cls-27" d="M1383.94,619.2h0c14.12-.68,25.12-12.79,24.44-26.91l-5.1-106.15c-.68-14.12-12.79-25.12-26.91-24.44h0c-14.12,.68-25.12,12.79-24.44,26.91l5.1,106.15c.68,14.12,12.79,25.12,26.91,24.44h0Z"/>
    <path class="cls-22" d="M1294.18,375.04s-6.12-15.06,8.59-19.62l-8.59,19.62Z"/>
    <path class="cls-40" d="M1299.61,390.78v52.33s1.05,11.48,14.68,12.49c11.76,.89,19.27-6.86,22.43-10.99l1.66-2.43,.04-.04-5.56-51.35h-33.25Z"/>
    <polygon class="cls-34" points="1299.62 437.15 1322.81 411.93 1299.6 420.64 1299.62 437.15"/>
    <path class="cls-40" d="M1322.62,417.51c-10.84,6.39-23.63,6.38-31.35,1.19-7.72-5.16-6.45-17.05-4.15-24.6l.02-.06c.48-1.56,1.16-3.76,1.92-6.24,2.95-9.75,7.31-24.2,7.31-24.2,1.91-7.63,23.77-24.8,44.47-2.41,20.69,22.42-7.37,49.93-18.21,56.32h-.01Z"/>
    <path class="cls-42" d="M1297.06,360.52s.28,9.15,13.1,15.26,24.97,15.46,23.44,28.97,3.1,21.13,3.1,21.13c0,0,1.91-16.83,10.4-31.09,3.29-5.53,6.18-17.2,.71-27.25-8.63-15.87-30.91-27.93-50.74-7.01h0Z"/>
    <path class="cls-40" d="M1331.4,401.84c-2.76,4.07-3.54,6.97-.34,9.13,3.2,2.16,8.62,1.65,11.38-2.42s2.4-9.13-.8-11.29c-3.2-2.16-7.48,.51-10.24,4.58h0Z"/>
    <path class="cls-14" d="M1338.62,404.88c-2.68-1.31-5.02-.13-5.02-.13,1.85-4.65,7.43-2.77,7.43-2.77"/>
    <path class="cls-26" d="M1311.27,389.78c-.51,1.83-1.88,3.05-3.06,2.72s-1.73-2.08-1.22-3.91c.51-1.83,1.88-3.05,3.06-2.72s1.73,2.08,1.22,3.91Z"/>
    <path class="cls-26" d="M1296.39,384.07c-.47,1.69-1.74,2.81-2.83,2.51s-1.6-1.92-1.13-3.61c.47-1.69,1.74-2.81,2.83-2.51s1.6,1.92,1.13,3.61Z"/>
    <path class="cls-21" d="M1235.2,1035.61h73.02l25.07-214.62,.32-4.91c0-23.33-19.23-42.14-42.72-41.44-21.18,.61-38.93,17.85-40.18,39.03l-15.5,221.94h0Z"/>
    <path class="cls-11" d="M1317.54,386.88s-2.41-5.58-7.15-5.12"/>
    <path class="cls-11" d="M1298.45,377.56s-2.53-1.24-6.18,.86"/>
    <path class="cls-32" d="M1368.54,1035.61h69.68l-22.11-221.69-.06-.77c-1.48-21.54-19.45-38.55-41.37-38.55s-41.47,18.55-41.47,41.47c0,1.28,.06,2.54,.19,3.76l35.14,215.78Z"/>
    <path class="cls-27" d="M1127.76,533.61l85.27,53.96,5.04,4.19c10.28,7.13,25.35,3.42,33.45-8.26s6.26-27.07-4.02-34.19l-95.51-53.53-2.11,3.27-15.06,23.51-7.06,11.06h0Z"/>
    <path class="cls-11" d="M1302.56,385.44s-2.73,9.01-8.36,8.64c0,0,1.26,2.01,3.21,3.24"/>
    <path class="cls-32" d="M1301.03,622.81l.97,6.04,31.28,191.1c2.39,22.84,22.84,39.39,45.68,36.99,22.8-2.39,39.39-22.84,36.99-45.68,0,0-3.77-32.33-4.38-82.71-.49-39.02-9.33-70.5-23.24-90.86-4.06-5.92-8.52-10.91-13.3-14.89h-74Z"/>
    <path class="cls-11" d="M1294.41,404.62s5.22,4.14,11.29-1.2"/>
    <path class="cls-34" d="M1320.12,397.78c.05,1.98-3.05,3.67-6.93,3.78s-7.07-1.41-7.13-3.39c-.05-1.98,3.05-3.67,6.93-3.78s7.07,1.41,7.13,3.39Z"/>
    <path class="cls-34" d="M1291.23,393.11c-.63,1.05-2.21,1.35-4.1,.94,.48-1.56,1.16-3.76,1.92-6.24,2.04,1.86,3,3.99,2.18,5.31h0Z"/>
    <path class="cls-18" d="M1329.56,410.97c-.45,1.69,.55,3.42,2.24,3.87,1.69,.45,3.42-.55,3.87-2.24s-.55-3.42-2.24-3.87-3.42,.55-3.87,2.24Z"/>
    <polygon class="cls-40" points="1452.25 1082.69 1398.46 1082.69 1391.48 1072.06 1391.64 1082.69 1379.79 1082.69 1380.85 1051.98 1378.26 1035.59 1422.06 1035.59 1422.23 1051.98 1452.25 1082.69"/>
    <path class="cls-41" d="M1297.95,442.89l2.71,55.02,36.06-53.3c-3.16,4.14-10.67,11.89-22.43,10.99-13.63-1.01-16.34-12.71-16.34-12.71Z"/>
    <polygon class="cls-19" points="1338.1 439.16 1311.21 455.16 1316.89 465.11 1341.89 443.8 1338.1 439.16"/>
    <polygon class="cls-19" points="1299.62 441.46 1311.21 455.16 1304.21 463.61 1296.91 443.98 1299.62 441.46"/>
    <g>
      <polygon class="cls-30" points="1091.86 396.06 1109.21 385.43 934.64 100.67 914.69 87.61 917.29 111.31 1091.86 396.06"/>
      <path class="cls-31" d="M1294.43,770.27l56.36-34.55c7.71-4.73,10.13-14.81,5.4-22.51l-180.13-293.82-84.27,51.66,180.13,293.82c4.73,7.71,14.81,10.13,22.51,5.4Z"/>
      <path class="cls-31" d="M1149.42,375.93l-84.27,51.66-11.8-19.24c-.95-1.54-.46-3.56,1.08-4.5l78.7-48.25c1.54-.95,3.56-.46,4.5,1.08l11.8,19.24h0Z"/>
      <path class="cls-29" d="M1088.74,443.82c-8.32-12.33-23.59-16.23-23.59-16.23l42.14-25.83,42.14-25.83s-3.45,15.38,3.76,28.39c7.22,13.01,22.88,15.07,22.88,15.07l-42.14,25.83-42.14,25.83s5.27-14.9-3.05-27.23h0Z"/>
      <path class="cls-29" d="M1308.53,730.04h0c3.18-1.95,4.19-6.15,2.24-9.33l-152.96-249.51c-1.95-3.18-6.15-4.19-9.33-2.24h0c-3.18,1.95-4.19,6.15-2.24,9.33l152.96,249.51c1.95,3.18,6.15,4.19,9.33,2.24h0Z"/>
      <path class="cls-29" d="M1285.4,744.22h0c3.18-1.95,4.19-6.15,2.24-9.33l-152.96-249.51c-1.95-3.18-6.15-4.19-9.33-2.24h0c-3.18,1.95-4.19,6.15-2.24,9.33l152.96,249.51c1.95,3.18,6.15,4.19,9.33,2.24h0Z"/>
      <path class="cls-29" d="M1331.67,715.86h0c-3.18,1.95-7.38,.94-9.33-2.24l-152.96-249.51c-1.95-3.18-.94-7.38,2.24-9.33h0c3.18-1.95,7.38-.94,9.33,2.24l152.96,249.51c1.95,3.18,.94,7.38-2.24,9.33Z"/>
      <polygon class="cls-36" points="934.64 100.67 914.69 87.61 937.89 119.88 934.64 100.67"/>
      <polygon class="cls-36" points="917.29 111.31 914.69 87.61 932.93 122.92 917.29 111.31"/>
    </g>
    <polygon class="cls-40" points="1258.76 1082.69 1271.62 1073.11 1270.53 1082.69 1282.49 1082.69 1288.37 1051.98 1291.54 1035.59 1245.13 1035.59 1243.35 1051.98 1206.11 1082.69 1258.76 1082.69"/>
    <polygon class="cls-42" points="1422.23 1051.98 1452.25 1082.69 1398.46 1082.69 1391.48 1072.06 1391.64 1082.69 1379.79 1082.69 1380.85 1051.98 1422.23 1051.98"/>
    <polygon class="cls-42" points="1258.76 1082.69 1271.62 1073.11 1270.53 1082.69 1282.49 1082.69 1288.37 1051.98 1243.35 1051.98 1206.11 1082.69 1258.76 1082.69"/>
    <path class="cls-40" d="M1220.47,541.46c-2.64,1.42-1.61,5.68-1.61,5.68,0,0-3.22-2.81-4.56-.49-1.27,2.15,1.99,7.19,2.41,7.85-.36-.33-1.62-1.28-2.37,1.27-.85,2.8,6.96,8.66,7.7,9.21-.33-.05-2.02-.31-2.36,1.8-.36,2.35,11.92,9.4,22.04,11.51,8.55,1.76,28.71,3.67,34.75,4.23l6.8-27c-3.41-1.24-7.18-2.82-10.14-4.51-7.24-4.04-28.13-12.68-29.37-9.64-1.24,3,11.89,11.85,10.34,12.68s-12.68-3.39-17.27-5.55c-4.63-2.19-13.75-8.47-16.35-7.05h-.01Z"/>
    <path class="cls-27" d="M1285.3,547.37l-2.04,8.16-6.8,27-1.8,7.17,103.39,30.44c12.07,3.32,25.03-5.17,28.82-18.86,3.74-13.73-3.07-27.62-15.18-30.94l-8.16-1.1h-.04l-98.19-21.86h0Z"/>
    <polyline class="cls-11" points="1305.12 551.78 1355.51 563 1354.03 532.28"/>
    <path class="cls-5" d="M1305.22,388.57c-1.6,3.22-.91,6.81,1.54,8.03,2.45,1.22,5.73-.4,7.33-3.62s.9-6.81-1.54-8.03c-2.45-1.22-5.73,.4-7.33,3.62Z"/>
    <path class="cls-5" d="M1290.52,382.94c-1.6,3.22-.9,6.81,1.54,8.03,2.45,1.22,5.73-.4,7.33-3.62s.91-6.81-1.54-8.03c-2.45-1.22-5.73,.4-7.33,3.62Z"/>
    <line class="cls-5" x1="1306.09" y1="387.19" x2="1300.13" y2="385.15"/>
    <line class="cls-11" x1="1362.07" y1="615.43" x2="1291.53" y2="594.66"/>
  </g>
  <g>
    <rect class="cls-21" x="1523.64" y="179.66" width="243.43" height="140.83" rx="11.32" ry="11.32"/>
    <rect class="cls-37" x="1536.23" y="179.66" width="243.43" height="140.83" rx="11.32" ry="11.32"/>
    <g>
      <path class="cls-19" d="M1555.08,219.31h17.02c3.1,0,5.65,.42,7.65,1.27,2.01,.84,3.59,1.91,4.75,3.21s1.97,2.76,2.43,4.37c.46,1.62,.68,3.18,.68,4.68s-.23,3.06-.68,4.68c-.46,1.62-1.26,3.08-2.43,4.37-1.16,1.3-2.74,2.37-4.75,3.21-2,.84-4.56,1.26-7.65,1.26h-10.46v21.33h-6.56v-48.39h0Zm6.56,21.33h8.61c1.27,0,2.54-.1,3.79-.31,1.25-.2,2.37-.58,3.35-1.13s1.77-1.33,2.36-2.36c.6-1.03,.89-2.36,.89-4s-.29-2.97-.89-4c-.59-1.03-1.38-1.81-2.36-2.36s-2.1-.92-3.35-1.13-2.52-.31-3.79-.31h-8.61v15.6Z"/>
      <path class="cls-19" d="M1590.21,235.31h7.11l9.59,25.29h.14l9.2-25.29h6.56l-15.38,39.37c-.55,1.41-1.11,2.7-1.7,3.86-.59,1.16-1.3,2.15-2.11,2.97-.82,.82-1.81,1.46-2.96,1.91-1.16,.46-2.58,.68-4.25,.68-.91,0-1.83-.06-2.76-.17-.93-.11-1.82-.35-2.69-.72l.75-5.6c1.22,.5,2.45,.75,3.67,.75,.95,0,1.76-.13,2.41-.38,.66-.25,1.22-.61,1.7-1.1,.47-.48,.87-1.03,1.19-1.67s.63-1.37,.95-2.19l1.99-5.13-13.41-32.6v.02Z"/>
      <path class="cls-19" d="M1645.58,240.64h-8.82v14.7c0,.91,.02,1.81,.07,2.7,.04,.89,.22,1.69,.51,2.39,.29,.71,.75,1.28,1.37,1.71,.61,.43,1.51,.65,2.7,.65,.73,0,1.48-.07,2.26-.21,.77-.14,1.48-.39,2.12-.75v5.61c-.73,.41-1.67,.69-2.84,.85-1.16,.16-2.06,.24-2.7,.24-2.37,0-4.2-.33-5.5-.99s-2.25-1.52-2.87-2.56c-.62-1.05-.98-2.22-1.1-3.52-.11-1.3-.17-2.61-.17-3.93v-16.88h-7.11v-5.33h7.11v-9.09h6.15v9.09h8.82v5.33h0Z"/>
      <path class="cls-19" d="M1653.51,216.03h6.15v24.26h.13c.77-1.73,2.12-3.13,4.03-4.2,1.91-1.07,4.12-1.61,6.63-1.61,1.55,0,3.04,.24,4.48,.72s2.69,1.22,3.76,2.22c1.07,1,1.92,2.29,2.56,3.86,.63,1.57,.96,3.43,.96,5.57v20.85h-6.15v-19.14c0-1.5-.21-2.79-.62-3.86s-.96-1.94-1.64-2.6-1.47-1.14-2.36-1.44c-.89-.29-1.81-.44-2.76-.44-1.28,0-2.46,.21-3.55,.62-1.1,.41-2.05,1.06-2.88,1.95-.82,.89-1.46,2.02-1.91,3.38-.46,1.37-.68,2.98-.68,4.85v16.68h-6.15v-51.67h0Z"/>
      <path class="cls-19" d="M1689.93,251.5c0-2.37,.44-4.58,1.33-6.63,.88-2.05,2.1-3.85,3.65-5.4,1.55-1.55,3.37-2.77,5.47-3.66s4.35-1.33,6.77-1.33,4.67,.44,6.76,1.33c2.1,.89,3.92,2.11,5.47,3.66,1.55,1.55,2.77,3.35,3.65,5.4,.89,2.05,1.33,4.26,1.33,6.63s-.44,4.59-1.33,6.67c-.88,2.07-2.11,3.87-3.65,5.4-1.55,1.53-3.37,2.73-5.47,3.62-2.1,.89-4.35,1.33-6.76,1.33s-4.67-.45-6.77-1.33c-2.1-.89-3.92-2.1-5.47-3.62-1.55-1.53-2.77-3.33-3.65-5.4-.89-2.07-1.33-4.29-1.33-6.67h0Zm6.56,0c0,1.64,.25,3.16,.75,4.55s1.21,2.58,2.12,3.55c.91,.98,2.02,1.75,3.35,2.32,1.32,.57,2.8,.86,4.44,.86s3.12-.29,4.44-.86c1.32-.57,2.44-1.34,3.35-2.32s1.62-2.16,2.12-3.55c.5-1.39,.75-2.91,.75-4.55s-.25-3.15-.75-4.54-1.21-2.57-2.12-3.55-2.02-1.75-3.35-2.32c-1.32-.57-2.8-.86-4.44-.86s-3.13,.29-4.44,.86c-1.32,.57-2.44,1.34-3.35,2.32-.91,.98-1.62,2.17-2.12,3.55-.5,1.39-.75,2.91-.75,4.54h0Z"/>
      <path class="cls-19" d="M1732.1,235.31h6.15v4.99h.13c.77-1.73,2.12-3.13,4.03-4.2s4.12-1.61,6.63-1.61c1.55,0,3.04,.24,4.48,.72,1.43,.48,2.69,1.22,3.76,2.22,1.07,1,1.92,2.29,2.56,3.86,.63,1.57,.96,3.43,.96,5.57v20.85h-6.15v-19.14c0-1.5-.21-2.79-.62-3.86s-.96-1.94-1.64-2.6-1.47-1.14-2.36-1.44c-.89-.29-1.81-.44-2.76-.44-1.28,0-2.46,.21-3.55,.62-1.1,.41-2.05,1.06-2.88,1.95-.82,.89-1.46,2.02-1.91,3.38-.46,1.37-.68,2.98-.68,4.85v16.68h-6.15v-32.4h0Z"/>
    </g>
  </g>
  <g>
    <rect class="cls-21" x="80.58" y="713.9" width="165.8" height="140.8" rx="9.34" ry="9.34"/>
    <rect class="cls-37" x="89.45" y="713.9" width="165.8" height="140.8" rx="9.34" ry="9.34"/>
    <g>
      <path class="cls-19" d="M152.82,738.78h-5.51c-1.22,0-2.22,.31-3,.92s-1.41,1.43-1.9,2.45c-.49,1.02-.84,2.16-1.04,3.43s-.31,2.55-.31,3.86v18.48c.08,2.86-.27,5.26-1.04,7.22-.78,1.96-1.73,3.59-2.88,4.89-1.14,1.31-2.31,2.28-3.49,2.94-1.18,.65-2.14,1.06-2.88,1.22v.37c.74,.08,1.69,.41,2.88,.98,1.18,.57,2.34,1.47,3.49,2.69,1.14,1.22,2.1,2.88,2.88,4.96,.77,2.08,1.12,4.67,1.04,7.77v18.35c0,1.22,.1,2.47,.31,3.73,.2,1.26,.55,2.41,1.04,3.43,.49,1.02,1.12,1.84,1.9,2.45,.77,.61,1.77,.92,3,.92h5.51v8.81h-9.18c-1.55,0-3.08-.37-4.59-1.1s-2.88-1.85-4.1-3.36c-1.23-1.51-2.23-3.45-3-5.81-.77-2.37-1.16-5.18-1.16-8.44v-16.4c-.16-4.49-1.22-7.99-3.18-10.52s-4.32-3.79-7.1-3.79v-9.54c2.77,0,5.14-1.26,7.1-3.79,1.96-2.53,3.02-6.03,3.18-10.52v-19.33c0-2.61,.39-4.91,1.16-6.91s1.77-3.67,3-5.02c1.22-1.35,2.59-2.36,4.1-3.06,1.51-.69,3.04-1.04,4.59-1.04h9.18v8.76Z"/>
      <path class="cls-19" d="M193.93,829.82h5.51c1.22,0,2.22-.31,3-.92,.77-.61,1.4-1.43,1.89-2.45s.83-2.16,1.04-3.43c.2-1.26,.31-2.55,.31-3.85v-18.48c-.08-2.85,.26-5.26,1.04-7.22,.77-1.96,1.73-3.59,2.88-4.89,1.14-1.3,2.31-2.28,3.49-2.94,1.18-.65,2.14-1.06,2.88-1.22v-.37c-.73-.08-1.69-.41-2.88-.98-1.18-.57-2.34-1.47-3.49-2.69-1.14-1.22-2.1-2.87-2.88-4.96-.77-2.08-1.12-4.67-1.04-7.77v-18.35c0-1.22-.11-2.47-.31-3.73-.21-1.26-.55-2.4-1.04-3.43-.49-1.02-1.12-1.84-1.89-2.45-.78-.61-1.78-.92-3-.92h-5.51v-8.81h9.18c1.55,0,3.08,.37,4.59,1.1s2.88,1.86,4.1,3.36c1.22,1.51,2.22,3.45,3,5.81,.77,2.37,1.16,5.18,1.16,8.44v16.4c0,4.49,1.02,8,3.06,10.52,2.04,2.53,4.44,3.79,7.22,3.79v9.54c-2.78,0-5.18,1.27-7.22,3.79-2.04,2.53-3.06,6.04-3.06,10.52v19.33c0,2.61-.39,4.91-1.16,6.91-.78,2-1.77,3.67-3,5.02-1.22,1.35-2.59,2.36-4.1,3.06-1.51,.69-3.04,1.04-4.59,1.04h-9.18v-8.77Z"/>
    </g>
  </g>
  <g>
    <rect class="cls-33" x="1610.35" y="549.25" width="291.22" height="200.55" rx="14.77" ry="14.77"/>
    <path class="cls-25" d="M1640.7,549.25h261.67c8.15,0,14.77,6.62,14.77,14.77v171c0,8.15-6.62,14.77-14.77,14.77h-261.67c-8.15,0-14.77-6.62-14.77-14.77v-171c0-8.15,6.62-14.77,14.77-14.77Z"/>
    <g>
      <path class="cls-19" d="M1641.5,667.37v-14.6l84.3-45.62v22.3l-56.31,30.62,56.31,30.62v22.3l-84.3-45.62Z"/>
      <path class="cls-19" d="M1751.45,731.24l-13.83-6.08,51.98-157.36,13.83,6.49-51.98,156.95Z"/>
      <path class="cls-19" d="M1901.56,652.77v14.6l-84.3,45.62v-22.3l56.31-30.62-56.31-30.62v-22.3l84.3,45.62Z"/>
    </g>
  </g>
  <path class="cls-28" d="M171.37,3.65H80.94c-5.39,0-9.76,4.37-9.76,9.76v52.06c0,5.39,4.37,9.76,9.76,9.76h36.36v11.75h-23.93c-.47,0-.85,.38-.85,.85v3c0,.47,.38,.85,.85,.85h65.58c.47,0,.85-.38,.85-.85v-3c0-.47-.38-.85-.85-.85h-23.93v-11.75h36.36c5.39,0,9.76-4.37,9.76-9.76V13.41c0-5.39-4.37-9.76-9.76-9.76h-.01Z"/>
  <g>
    <path class="cls-19" d="M573.73,63.26v-7.74l44.7-24.19v11.83l-29.86,16.24,29.86,16.24v11.83l-44.7-24.19v-.02Z"/>
    <path class="cls-19" d="M632.04,97.13l-7.33-3.23,27.56-83.45,7.33,3.44-27.56,83.23h0Z"/>
    <path class="cls-19" d="M711.64,55.52v7.74l-44.7,24.19v-11.83l29.86-16.24-29.86-16.24v-11.83l44.7,24.19v.02Z"/>
  </g>
  <g>
    <path class="cls-28" d="M1858.72,318.95c-4.15-2.9-8.7-5.03-13.44-6.38-.85,5.11-5.42,8.88-10.72,8.61-5.3-.27-9.45-4.47-9.77-9.64-4.85,.85-9.59,2.5-14.01,4.96,3.01,4.22,2.46,10.11-1.49,13.67-3.94,3.56-9.86,3.51-13.75,.09-2.9,4.15-5.03,8.7-6.36,13.43,5.11,.85,8.87,5.41,8.6,10.7-.27,5.3-4.48,9.46-9.66,9.78,.86,4.86,2.51,9.6,4.98,14.02,4.21-3.02,10.11-2.48,13.68,1.47,3.56,3.94,3.51,9.88,.07,13.76,4.15,2.9,8.7,5.03,13.43,6.36,.85-5.11,5.42-8.88,10.72-8.61,5.3,.27,9.45,4.47,9.77,9.65,4.84-.85,9.59-2.5,14.01-4.96-3.01-4.22-2.46-10.11,1.49-13.67,3.94-3.56,9.86-3.51,13.75-.09,2.9-4.15,5.03-8.7,6.36-13.43-5.11-.85-8.87-5.41-8.6-10.7,.27-5.3,4.48-9.46,9.66-9.78-.85-4.84-2.5-9.59-4.96-14.01-4.23,3.02-10.12,2.47-13.68-1.47-3.57-3.96-3.52-9.87-.07-13.76h-.01Zm-9.65,22.54c8.12,8.99,7.42,22.86-1.58,30.99-9,8.13-22.88,7.41-30.99-1.58-8.13-9-7.43-22.88,1.57-31,9-8.13,22.88-7.41,31,1.6h0Z"/>
    <path class="cls-28" d="M1813.27,456.14c-5.95,12-20.5,16.93-32.52,10.98-12.02-5.95-16.92-20.52-10.98-32.52,5.95-12.02,20.51-16.95,32.53-10.99s16.92,20.52,10.97,32.54h0Zm27.11,.75c1.3-5.45,1.64-10.99,1.09-16.42-5.6,1.21-11.34-1.96-13.22-7.52s.76-11.54,5.95-13.97c-2.84-4.64-6.47-8.85-10.8-12.39-3.11,4.81-9.4,6.64-14.67,4.03s-7.62-8.71-5.68-14.11c-5.45-1.3-10.99-1.64-16.41-1.08,1.21,5.6-1.95,11.32-7.51,13.2s-11.56-.76-13.99-5.96c-4.65,2.86-8.86,6.49-12.4,10.82,4.82,3.1,6.67,9.39,4.05,14.67-2.61,5.26-8.74,7.63-14.13,5.67-1.3,5.45-1.64,10.99-1.08,16.41,5.6-1.21,11.34,1.96,13.22,7.52s-.76,11.54-5.95,13.97c2.84,4.64,6.47,8.85,10.8,12.39,3.12-4.81,9.4-6.64,14.67-4.03,5.26,2.61,7.62,8.71,5.68,14.11,5.45,1.3,10.99,1.64,16.41,1.08-1.21-5.6,1.95-11.32,7.51-13.2s11.56,.76,13.99,5.96c4.64-2.84,8.85-6.47,12.39-10.8-4.83-3.12-6.66-9.41-4.05-14.67,2.62-5.28,8.72-7.64,14.13-5.67h0Z"/>
  </g>
</svg>