<?xml version="1.0" encoding="UTF-8"?>
<svg id="Layer_1" data-name="Layer 1" xmlns="http://www.w3.org/2000/svg" viewBox="0 0 445.28 426.57">
  <defs>
    <style>
      .cls-1, .cls-2, .cls-3 {
        fill: #fff;
      }

      .cls-4 {
        fill: #687087;
      }

      .cls-5 {
        fill: #3f4553;
      }

      .cls-6 {
        letter-spacing: -.01em;
      }

      .cls-7 {
        fill: #67acbc;
      }

      .cls-2 {
        font-size: 15.39px;
      }

      .cls-2, .cls-8, .cls-3 {
        font-family: ArialRoundedMTBold, 'Arial Rounded MT Bold';
      }

      .cls-9 {
        fill: #c93814;
      }

      .cls-8 {
        fill: #e6e7e8;
        font-size: 35.44px;
      }

      .cls-10 {
        fill: #ffb333;
      }

      .cls-11 {
        fill: #de3f18;
      }

      .cls-12 {
        fill: #ffd14a;
      }

      .cls-13 {
        letter-spacing: -.04em;
      }

      .cls-14 {
        fill: #79c9db;
      }

      .cls-15 {
        fill: #f8931f;
      }

      .cls-16 {
        fill: #586073;
      }

      .cls-3 {
        font-size: 14px;
      }

      .cls-17 {
        letter-spacing: -.01em;
      }

      .cls-18 {
        fill: #fac007;
      }
    </style>
  </defs>
  <path class="cls-4" d="M250.79,144.95V426.07h108.64c8.97,0,16.24-7.27,16.24-16.24V144.95h-124.89Z"/>
  <g>
    <path class="cls-11" d="M238.47,46.04h0v117.53c0,7.59-6.15,13.74-13.74,13.74h137.2c7.59,0,13.74-6.15,13.74-13.74V46.04H238.47Z"/>
    <polygon class="cls-11" points="308.13 0 218.35 55.44 397.92 55.44 308.13 0"/>
  </g>
  <g>
    <g>
      <path class="cls-5" d="M118.4,361.65c-7.59,0-13.74,6.15-13.74,13.74h0v50.68H250.79v-50.68h0c0-7.59,6.15-13.74,13.74-13.74H118.4Z"/>
      <path class="cls-16" d="M104.66,375.39h0s146.13,0,146.13,0h0c0-7.59,6.15-13.74,13.74-13.74H118.4c-7.59,0-13.73,6.15-13.74,13.73Z"/>
    </g>
    <g>
      <path class="cls-15" d="M152.73,300.2c-7.59,0-13.74,6.15-13.74,13.74h0s0,0,0,0v33.98c0,7.59-6.15,13.74-13.74,13.74h146.13c7.59,0,13.74-6.15,13.74-13.74v-33.98h0c0-7.59,6.15-13.74,13.74-13.74H152.73Z"/>
      <path class="cls-10" d="M138.98,313.94h0s146.13,0,146.13,0h0c0-7.59,6.15-13.74,13.74-13.74H152.71c-7.59,0-13.73,6.15-13.74,13.73Z"/>
    </g>
    <g>
      <path class="cls-7" d="M181.48,238.75c-7.59,0-13.74,6.15-13.74,13.74h0v33.98c0,7.59-6.15,13.74-13.74,13.74h146.13c7.59,0,13.74-6.15,13.74-13.74v-33.98h0c0-7.59,6.15-13.74,13.74-13.74H181.48Z"/>
      <path class="cls-14" d="M167.74,252.49h0s146.13,0,146.13,0h0c0-7.59,6.15-13.74,13.74-13.74H181.48c-7.59,0-13.73,6.15-13.74,13.73Z"/>
    </g>
    <g>
      <path class="cls-18" d="M215.81,177.3c-7.59,0-13.74,6.15-13.74,13.74h0v33.98c0,7.59-6.15,13.74-13.74,13.74h146.13c7.59,0,13.74-6.15,13.74-13.74v-33.98h0c0-7.59,6.15-13.74,13.74-13.74H215.81Z"/>
      <path class="cls-12" d="M202.08,191.04h0s146.13,0,146.13,0h0c0-7.59,6.15-13.74,13.74-13.74H215.81c-7.59,0-13.73,6.15-13.74,13.73Z"/>
    </g>
  </g>
  <text class="cls-2" transform="translate(204.08 398.13)"><tspan x="0" y="0">St</tspan><tspan class="cls-17" x="15.71" y="0">e</tspan><tspan x="24.65" y="0">p 1</tspan></text>
  <text class="cls-2" transform="translate(141.08 336.96)"><tspan x="0" y="0">St</tspan><tspan class="cls-17" x="15.71" y="0">e</tspan><tspan x="24.65" y="0">p 2</tspan></text>
  <text class="cls-2" transform="translate(260.16 275.33)"><tspan x="0" y="0">St</tspan><tspan class="cls-17" x="15.71" y="0">e</tspan><tspan x="24.65" y="0">p 3</tspan></text>
  <text class="cls-2" transform="translate(206.08 214.72)"><tspan x="0" y="0">St</tspan><tspan class="cls-17" x="15.71" y="0">e</tspan><tspan x="24.65" y="0">p 4</tspan></text>
  <text class="cls-3" transform="translate(271.58 165.22)"><tspan x="0" y="0">FINISH</tspan></text>
  <rect class="cls-1" x="260.72" y="392.98" width="118.87" height="1"/>
  <path class="cls-4" d="M412.18,426.57c-18.25,0-33.1-14.85-33.1-33.1s14.85-33.1,33.1-33.1,33.1,14.85,33.1,33.1-14.85,33.1-33.1,33.1Zm0-65.19c-17.7,0-32.1,14.4-32.1,32.1s14.4,32.1,32.1,32.1,32.1-14.4,32.1-32.1-14.4-32.1-32.1-32.1Z"/>
  <circle class="cls-1" cx="260.72" cy="393.47" r="3.13"/>
  <g>
    <path class="cls-4" d="M420.76,402.75h-17.15v-2.35c0-2.61-.86-5.14-2.49-7.33-1.84-2.46-2.78-5.39-2.74-8.47,.11-7.32,6.15-13.42,13.47-13.59,3.78-.09,7.3,1.31,9.98,3.93,2.68,2.62,4.16,6.13,4.16,9.88,0,3.03-.96,5.91-2.79,8.32-1.58,2.08-2.44,4.65-2.44,7.23v2.38Zm-16.2-.96h15.24v-1.42c0-2.79,.94-5.56,2.64-7.81,1.7-2.24,2.6-4.92,2.6-7.75,0-3.49-1.38-6.76-3.87-9.19-2.5-2.44-5.79-3.75-9.29-3.65-6.81,.16-12.44,5.83-12.54,12.65-.04,2.87,.84,5.59,2.55,7.88,1.76,2.35,2.68,5.08,2.68,7.9v1.39Z"/>
    <path class="cls-4" d="M413.22,416.66h-2.07c-.69,0-1.33-.3-1.78-.83l-1.55-1.84h8.72l-1.55,1.84c-.44,.52-1.09,.83-1.77,.83Zm-3.34-1.71l.23,.27c.26,.31,.64,.49,1.04,.49h2.07c.4,0,.78-.18,1.04-.49l.23-.27h-4.61Z"/>
    <path class="cls-4" d="M414.84,414.95h-5.32c-3.26,0-5.92-2.65-5.92-5.92v-7.24h17.15v7.24c0,3.26-2.65,5.92-5.92,5.92Zm-10.28-12.2v6.28c0,2.73,2.22,4.96,4.96,4.96h5.32c2.73,0,4.96-2.23,4.96-4.96v-6.28h-15.24Z"/>
    <path class="cls-4" d="M417.58,384.14c-.31-.15-.69-.01-.84,.3l-3.92,8.34v-11.46c0-.35-.28-.63-.63-.63h0c-.35,0-.63,.28-.63,.63v11.48l-3.93-8.35c-.15-.31-.52-.45-.84-.3s-.45,.52-.3,.84l5.07,10.77v6.52h1.26v-6.54l5.06-10.76c.15-.31,.01-.69-.3-.84Z"/>
    <g>
      <polygon class="cls-4" points="404.09 403.97 404.09 404.99 411.43 402.27 408.67 402.27 404.09 403.97"/>
      <polygon class="cls-4" points="404.09 406.85 404.09 407.87 419.23 402.27 416.47 402.27 404.09 406.85"/>
      <path class="cls-4" d="M404.13,409.71c.04,.32,.11,.64,.2,.94l15.95-5.89v-1.02l-16.15,5.97Z"/>
      <path class="cls-4" d="M405.13,412.22c.2,.28,.43,.53,.68,.77l14.48-5.35v-1.02l-15.15,5.6Z"/>
      <path class="cls-4" d="M420.26,409.52l-12.55,4.64c.57,.2,1.18,.32,1.82,.32h.08l10.44-3.86c.11-.35,.18-.72,.21-1.1Z"/>
    </g>
  </g>
  <g>
    <g>
      <rect class="cls-4" x="73.79" y="330.43" width="54.75" height="1"/>
      <path class="cls-4" d="M41.2,364.03c-18.25,0-33.1-14.85-33.1-33.1s14.85-33.1,33.1-33.1,33.1,14.85,33.1,33.1-14.85,33.1-33.1,33.1Zm0-65.19c-17.7,0-32.1,14.4-32.1,32.1s14.4,32.1,32.1,32.1,32.1-14.4,32.1-32.1-14.4-32.1-32.1-32.1Z"/>
      <circle class="cls-1" cx="128.55" cy="330.93" r="3.13"/>
    </g>
    <g>
      <path class="cls-4" d="M49.6,353.15c-.34,0-.66-.19-.83-.51l-.9-1.76c-1.08-.1-2.13-.34-3.15-.73l-1.58,1.19c-.32,.25-.76,.25-1.1,.02l-2.44-1.74c-.33-.24-.47-.66-.34-1.04l.61-1.88c-.7-.83-1.27-1.75-1.72-2.74l-1.96-.28c-.4-.06-.72-.36-.79-.77l-.49-2.95c-.07-.4,.13-.8,.49-.98l1.76-.9c.1-1.08,.34-2.13,.73-3.15l-1.19-1.58c-.25-.32-.25-.77-.01-1.1l1.73-2.43c.24-.33,.65-.47,1.04-.34l1.88,.61c.83-.7,1.75-1.28,2.74-1.72l.27-1.96c.06-.4,.36-.72,.77-.79l2.95-.49c.4-.06,.8,.13,.98,.49l.9,1.76c1.08,.1,2.13,.34,3.15,.73l1.58-1.19c.32-.24,.77-.25,1.1-.01l2.43,1.73c.33,.24,.47,.66,.34,1.04l-.61,1.88c.7,.83,1.27,1.75,1.72,2.74l1.96,.27c.4,.06,.72,.37,.79,.77l.49,2.95c.07,.4-.13,.8-.49,.98l-1.76,.9c-.09,1.08-.34,2.13-.73,3.15l1.19,1.58c.24,.32,.25,.77,.01,1.1l-1.73,2.43c-.24,.33-.66,.47-1.04,.34l-1.88-.61c-.83,.7-1.75,1.27-2.74,1.72l-.28,1.96c-.06,.4-.36,.72-.77,.79l-2.95,.49c-.05,0-.1,.01-.16,.01Zm-5.02-4.08l.25,.1c1.08,.44,2.22,.7,3.38,.78l.27,.02,1.14,2.24,2.92-.51,.33-2.47,.25-.1c1.07-.45,2.06-1.07,2.94-1.84l.2-.18,2.4,.78,1.7-2.42-1.51-1.98,.1-.25c.44-1.08,.71-2.22,.78-3.38l.02-.27,2.22-1.13-.49-2.93-2.47-.33-.11-.25c-.45-1.07-1.07-2.06-1.84-2.94l-.18-.2,.78-2.4-2.42-1.7-1.98,1.51-.25-.1c-1.08-.44-2.22-.71-3.38-.78l-.27-.02-1.14-2.24-2.92,.51-.33,2.47-.25,.11c-1.07,.45-2.06,1.07-2.94,1.84l-.2,.18-2.4-.78-1.7,2.42,1.52,1.98-.1,.25c-.44,1.08-.7,2.22-.78,3.38l-.02,.27-2.24,1.14,.51,2.92,2.47,.33,.1,.25c.45,1.07,1.07,2.06,1.84,2.94l.18,.2-.78,2.4,2.42,1.7,1.98-1.51Zm4.33-1.82c-1.67,0-3.3-.52-4.69-1.51-1.77-1.26-2.94-3.13-3.29-5.26-.74-4.41,2.24-8.6,6.65-9.34,4.41-.74,8.6,2.25,9.34,6.65,.36,2.13-.14,4.28-1.4,6.04-1.26,1.77-3.13,2.93-5.26,3.29-.45,.08-.9,.11-1.35,.11Zm.02-15.26c-.4,0-.8,.03-1.19,.1-1.88,.32-3.53,1.35-4.64,2.9-1.11,1.56-1.55,3.45-1.23,5.33,.65,3.89,4.35,6.52,8.24,5.87,1.88-.32,3.53-1.35,4.64-2.9,1.11-1.56,1.55-3.45,1.23-5.33s-1.35-3.53-2.91-4.64c-1.23-.87-2.66-1.33-4.14-1.33Z"/>
      <path class="cls-4" d="M32.09,332.81c-.35,0-.67-.19-.83-.51l-.73-1.43c-.88-.08-1.74-.28-2.57-.59l-1.28,.97c-.33,.25-.77,.25-1.1,.01l-2.07-1.47c-.33-.24-.47-.65-.35-1.04l.5-1.53c-.56-.68-1.03-1.43-1.4-2.23l-1.59-.22c-.4-.06-.72-.37-.79-.77l-.42-2.51c-.07-.4,.13-.8,.49-.98l1.43-.73c.08-.88,.28-1.74,.59-2.57l-.97-1.28c-.24-.33-.25-.77-.01-1.1l1.47-2.07c.24-.33,.66-.47,1.04-.34l1.53,.49c.68-.56,1.43-1.03,2.23-1.4l.22-1.59c.06-.4,.36-.72,.77-.79l2.51-.42c.41-.07,.8,.13,.98,.49l.73,1.43c.88,.08,1.74,.28,2.57,.59l1.28-.97c.32-.25,.77-.25,1.1-.01l2.07,1.47c.33,.23,.47,.65,.35,1.04l-.5,1.53c.56,.68,1.03,1.43,1.4,2.23l1.59,.22c.4,.06,.72,.36,.79,.77l.42,2.51c.07,.4-.13,.79-.49,.98l-1.43,.73c-.08,.88-.28,1.74-.59,2.57l.97,1.28c.24,.33,.25,.77,.01,1.1l-1.47,2.07c-.24,.33-.66,.47-1.04,.34l-1.53-.49c-.68,.56-1.43,1.03-2.23,1.4l-.22,1.59c-.06,.4-.36,.72-.77,.79l-2.51,.42c-.05,0-.1,.01-.15,.01Zm-4.27-3.61l.25,.1c.9,.36,1.84,.58,2.8,.65l.27,.02,.97,1.91,2.48-.43,.28-2.1,.25-.11c.89-.38,1.7-.89,2.43-1.53l.2-.18,2.04,.66,1.44-2.06-1.29-1.68,.1-.25c.36-.9,.58-1.84,.65-2.8l.02-.27,1.89-.96-.42-2.49-2.1-.28-.11-.25c-.38-.89-.89-1.71-1.52-2.44l-.18-.2,.66-2.04-2.06-1.44-1.68,1.29-.25-.1c-.9-.36-1.84-.58-2.8-.65l-.27-.02-.97-1.91-2.48,.44-.28,2.1-.25,.11c-.89,.38-1.71,.89-2.43,1.53l-.2,.18-2.04-.66-1.44,2.06,1.29,1.68-.1,.25c-.36,.9-.58,1.84-.65,2.8l-.02,.27-1.91,.97,.43,2.48,2.1,.28,.11,.25c.38,.89,.89,1.71,1.53,2.43l.18,.2-.66,2.04,2.06,1.44,1.68-1.29Zm3.68-1.54c-1.42,0-2.81-.44-3.99-1.28-1.5-1.07-2.5-2.66-2.8-4.47-.63-3.75,1.91-7.32,5.66-7.95,3.76-.63,7.32,1.91,7.95,5.66,.3,1.81-.12,3.64-1.19,5.14-1.07,1.5-2.66,2.5-4.47,2.8h0c-.39,.06-.77,.1-1.15,.1Zm.01-12.84c-.33,0-.65,.03-.99,.08-3.23,.54-5.42,3.61-4.88,6.84,.26,1.56,1.12,2.93,2.41,3.85,1.29,.92,2.87,1.29,4.43,1.02h0c1.56-.26,2.93-1.12,3.85-2.41,.92-1.29,1.29-2.87,1.02-4.43-.49-2.9-3.01-4.96-5.86-4.96Z"/>
    </g>
  </g>
  <rect class="cls-1" x="324.84" y="268.98" width="54.75" height="1"/>
  <path class="cls-4" d="M412.18,302.57c-18.25,0-33.1-14.85-33.1-33.1s14.85-33.1,33.1-33.1,33.1,14.85,33.1,33.1-14.85,33.1-33.1,33.1Zm0-65.19c-17.7,0-32.1,14.4-32.1,32.1s14.4,32.1,32.1,32.1,32.1-14.4,32.1-32.1-14.4-32.1-32.1-32.1Z"/>
  <circle class="cls-1" cx="324.84" cy="269.48" r="3.13"/>
  <g>
    <g>
      <path class="cls-4" d="M412.18,273.75c-4.87,0-8.83-3.96-8.83-8.83v-5.74c0-4.87,3.96-8.83,8.83-8.83s8.83,3.96,8.83,8.83v5.74c0,4.87-3.96,8.83-8.83,8.83Zm0-22.44c-4.34,0-7.87,3.53-7.87,7.87v5.74c0,4.34,3.53,7.87,7.87,7.87s7.87-3.53,7.87-7.87v-5.74c0-4.34-3.53-7.87-7.87-7.87Z"/>
      <path class="cls-4" d="M405.16,261.62c-.78,0-1.29-.04-1.37-.05-.26-.02-.46-.26-.43-.52,.02-.26,.26-.45,.52-.43,.08,0,7.93,.66,12.09-3.72,.11-.11,.26-.16,.41-.15,.15,.02,.28,.11,.36,.24,1.2,2.15,4.01,3.71,4.04,3.73,.23,.13,.32,.42,.19,.65s-.42,.32-.65,.19c-.12-.06-2.65-1.47-4.08-3.57-3.44,3.22-8.61,3.64-11.06,3.64Z"/>
    </g>
    <path class="cls-4" d="M427.47,290.24h-30.57v-6.01c0-4.62,3.76-8.37,8.38-8.37h13.82c4.62,0,8.37,3.76,8.37,8.37v6.01Zm-29.82-.75h29.07v-5.26c0-4.2-3.42-7.62-7.62-7.62h-13.82c-4.2,0-7.62,3.42-7.62,7.62v5.26Z"/>
    <g>
      <polygon class="cls-4" points="407.09 283.29 404.19 276.37 404.88 276.08 407.47 282.26 411.5 280.25 407.04 276.51 407.53 275.94 412.86 280.41 407.09 283.29"/>
      <polygon class="cls-4" points="417.27 283.29 411.5 280.41 416.84 275.94 417.32 276.51 412.86 280.25 416.89 282.26 419.48 276.08 420.18 276.37 417.27 283.29"/>
    </g>
    <rect class="cls-4" x="411.81" y="280.33" width=".75" height="9.53"/>
  </g>
  <g>
    <g>
      <rect class="cls-4" x="135.4" y="208.12" width="54.75" height="1"/>
      <path class="cls-4" d="M102.8,241.72c-18.25,0-33.1-14.85-33.1-33.1s14.85-33.1,33.1-33.1,33.1,14.85,33.1,33.1-14.85,33.1-33.1,33.1Zm0-65.19c-17.7,0-32.1,14.4-32.1,32.1s14.4,32.1,32.1,32.1,32.1-14.4,32.1-32.1-14.4-32.1-32.1-32.1Z"/>
      <circle class="cls-4" cx="190.15" cy="208.62" r="3.13"/>
    </g>
    <g>
      <path class="cls-4" d="M113.66,229.27h-21.71c-2.25,0-4.07-1.83-4.07-4.07v-33.15c0-2.24,1.83-4.07,4.07-4.07h17.97c.13,0,.25,.05,.34,.14l7.33,7.33c.09,.09,.14,.21,.14,.34v29.42c0,2.24-1.83,4.07-4.07,4.07Zm-21.71-40.34c-1.72,0-3.12,1.4-3.12,3.12v33.15c0,1.72,1.4,3.12,3.12,3.12h21.71c1.72,0,3.12-1.4,3.12-3.12v-29.22l-7.05-7.05h-17.78Z"/>
      <path class="cls-4" d="M117.25,196.26h-3.73c-2.24,0-4.07-1.83-4.07-4.07v-3.73c0-.19,.12-.37,.29-.44,.18-.07,.38-.03,.52,.1l7.33,7.33c.14,.14,.18,.34,.1,.52-.07,.18-.25,.3-.44,.3Zm-6.85-6.65v2.58c0,1.72,1.4,3.12,3.12,3.12h2.58l-5.7-5.7Z"/>
      <path class="cls-4" d="M107.77,193.95h-15.61c-.26,0-.48-.21-.48-.48s.21-.48,.48-.48h15.61c.26,0,.48,.21,.48,.48s-.21,.48-.48,.48Z"/>
      <path class="cls-4" d="M113.59,200.64h-21.43c-.26,0-.48-.21-.48-.48s.21-.48,.48-.48h21.43c.26,0,.48,.21,.48,.48s-.21,.48-.48,.48Z"/>
      <path class="cls-4" d="M113.59,207.33h-21.43c-.26,0-.48-.21-.48-.48s.21-.48,.48-.48h21.43c.26,0,.48,.21,.48,.48s-.21,.48-.48,.48Z"/>
      <path class="cls-4" d="M113.59,214.02h-21.43c-.26,0-.48-.21-.48-.48s.21-.48,.48-.48h21.43c.26,0,.48,.21,.48,.48s-.21,.48-.48,.48Z"/>
      <path class="cls-4" d="M113.59,220.71h-21.43c-.26,0-.48-.21-.48-.48s.21-.48,.48-.48h21.43c.26,0,.48,.21,.48,.48s-.21,.48-.48,.48Z"/>
    </g>
  </g>
  <polygon class="cls-9" points="375.67 55.44 238.47 55.44 375.67 67.32 375.67 55.44"/>
  <g>
    <path class="cls-1" d="M325.78,93.83c0-3.13-2.54-5.68-5.68-5.68s-5.68,2.54-5.68,5.68,2.54,5.68,5.68,5.68,5.68-2.54,5.68-5.68Z"/>
    <path class="cls-1" d="M337.07,104.96c-.76-1.08-2.27-1.32-3.42-.68l-6.47,3.78-22.45-13.83c-.99-.62-2.29-.47-3.12,.35l-6.56,6.55c-.13,.13-.24,.26-.33,.41l-.06-.06c-.94-.94-2.45-.94-3.39,0l-.67,.67-1.1-1.1c-.89-.89-2.34-.89-3.23,0l-6.87,6.87c-.89,.89-.89,2.34,0,3.23l9.25,9.25c.89,.89,2.34,.89,3.23,0l6.87-6.87c.89-.89,.89-2.34,0-3.23l-1.1-1.1,.67-.67c.94-.94,.94-2.45,0-3.39l-.11-.11c.1-.07,.2-.15,.3-.24l5.25-5.24,5.04,3.15-9.56,14.62c-.04,.06-.07,.12-.1,.18-.06,.1-.12,.2-.17,.3-.04,.09-.07,.19-.1,.28-.03,.08-.06,.15-.08,.24l-3.27,13.21-9.24,7.7c-1.12,.93-1.5,2.55-.76,3.81,.57,.97,1.56,1.47,2.55,1.47,.66,0,1.33-.22,1.88-.68l10.08-8.4c.48-.4,.82-.94,.97-1.55l2.5-10.08,6.97,4.65v13.38c0,1.59,1.19,3.02,2.78,3.1,1.7,.09,3.1-1.26,3.1-2.94v-15.12c0-.98-.49-1.9-1.31-2.45l-7.4-5.04,8.31-12.34,9.84,6.06c.41,.25,.87,.38,1.33,.38,.42,0,.85-.11,1.23-.32l7.9-4.58c1.29-.72,1.7-2.41,.83-3.65Zm-39.93,2.41l-.67,.67-4.68-4.68,.67-.67c.28-.28,.73-.28,1.01,0l.81,.81c.07,.4,.22,.79,.49,1.12,.4,.49,.94,.78,1.51,.88l.85,.85c.28,.28,.28,.73,0,1.01Z"/>
  </g>
  <polygon class="cls-16" points="145.69 402.14 131.26 383.17 116.83 402.14 123.21 402.14 123.21 426.07 139.32 426.07 139.32 402.14 145.69 402.14"/>
  <polygon class="cls-10" points="257.59 337.72 243.17 318.76 228.74 337.72 235.11 337.72 235.11 361.65 251.22 361.65 251.22 337.72 257.59 337.72"/>
  <polygon class="cls-14" points="210.26 276.27 195.83 257.3 181.4 276.27 187.78 276.27 187.78 300.2 203.89 300.2 203.89 276.27 210.26 276.27"/>
  <polygon class="cls-12" points="320.15 214.82 305.73 195.85 291.3 214.82 297.67 214.82 297.67 238.75 313.78 238.75 313.78 214.82 320.15 214.82"/>
  <text class="cls-8" transform="translate(0 93.39)"><tspan class="cls-13" x="0" y="0">B</tspan><tspan x="24.14" y="0">USINESS</tspan><tspan x="86.64" y="42.53">P</tspan><tspan class="cls-6" x="110.28" y="42.53">L</tspan><tspan x="131.22" y="42.53">AN</tspan></text>
</svg>