<?xml version="1.0" encoding="UTF-8"?>
<svg id="Layer_1" data-name="Layer 1" xmlns="http://www.w3.org/2000/svg" viewBox="0 0 134.07 36.82">
  <defs>
    <style>
      .cls-1, .cls-2 {
        fill: #fff;
      }

      .cls-2 {
        font-family: Bauhaus93, 'Bauhaus 93';
        font-size: 9.36px;
      }
    </style>
  </defs>
  <text class="cls-2" transform="translate(40.84 19.93)"><tspan x="0" y="0">Brownrice Technology</tspan></text>
  <path class="cls-1" d="M29.15,3.46c-2.27,2.27-4.54,4.54-6.81,6.81-.04-.04-.09-.08-.14-.13-1.61-1.61-3.23-3.23-4.84-4.84q-.12-.12-.24,0c-1.68,1.68-3.36,3.36-5.04,5.04-.79,.8-1.49,1.66-1.97,2.69-.26,.56-.43,1.15-.46,1.77-.05,.98,.24,1.85,.78,2.65,.56,.82,1.25,1.51,2.14,1.98,.61,.32,1.26,.51,1.95,.54,.4,.02,.81-.01,1.22-.02,.02,0,.04,0,.08,0-.04,.11-.07,.21-.1,.31-.18,.53-.28,1.07-.29,1.62-.02,1.05,.29,2,.89,2.85,.78,1.11,1.76,1.97,3.03,2.48,.75,.3,1.53,.4,2.32,.34,1.15-.08,2.16-.51,3.06-1.22,.72-.57,1.36-1.23,2.01-1.88,.05-.05,.06-.1,0-.15-.02-.02-.04-.04-.05-.05-1.15-1.15-2.3-2.3-3.45-3.45-.04-.04-.09-.08-.14-.13-.05,.05-.09,.09-.13,.13-.37,.35-.74,.7-1.12,1.04-.18,.15-.39,.27-.63,.27-.66,0-1.13-.73-.86-1.33,.13-.29,.34-.53,.56-.75,.22-.23,.45-.45,.68-.67,.07-.07,.09-.12,0-.19-1.23-1.22-2.45-2.44-3.67-3.67-.07-.07-.11-.07-.19,0-.22,.22-.47,.4-.76,.52-.68,.27-1.26-.28-1.37-.73-.08-.32,.02-.61,.21-.86,.18-.23,.39-.45,.59-.66,.13-.14,.28-.27,.41-.42,.09-.09,.15-.09,.22,0,.03,.03,.06,.06,.09,.09,3.4,3.4,6.79,6.79,10.19,10.19,.04,.04,.08,.07,.13,.12,.04-.04,.08-.07,.12-.11,1.32-1.32,2.63-2.63,3.95-3.95q.12-.12,0-.24c-1.61-1.61-3.23-3.23-4.84-4.84-.04-.04-.1-.07-.13-.1,2.29-2.29,4.56-4.56,6.82-6.82,4.05,5.28,5.44,14.96-.81,22.48-6.64,7.98-18.29,8.77-25.94,2.35C-1.48,25.74-2.13,13.84,4.6,6.25,11.51-1.55,22.41-1.54,29.15,3.46Z"/>
</svg>